<svg width="98" height="159" viewBox="0 0 98 159" fill="none" xmlns="http://www.w3.org/2000/svg">
<g clip-path="url(#clip0_707_3180)">
<path d="M44.6773 50.1554C55.9578 42.297 58.642 26.9091 50.6727 15.7857C42.7034 4.66217 27.0983 2.01529 15.8178 9.87367C4.53724 17.7321 1.853 33.1199 9.82233 44.2434C17.7917 55.3669 33.3967 58.0137 44.6773 50.1554Z" fill="#30353E"/>
<path d="M97.103 163.106C95.8033 157.942 90.3711 141.679 88.901 137.754C87.431 133.828 87.3301 129.43 85.0461 124.471C82.7622 119.513 78.9136 98.08 78.1628 93.6069C77.412 89.1337 77.4246 86.3154 73.8788 84.0322C70.3331 81.7489 67.6201 80.5047 64.6989 78.2898C61.7778 76.075 55.6894 71.3095 50.5222 69.1569C45.3549 67.0043 41.6893 65.9653 38.8817 68.149C36.0741 70.3327 35.0961 73.3625 33.6261 75.0734C32.1561 76.7843 31.3737 80.7722 29.9037 82.4893C28.4336 84.2064 26.7491 87.765 28.1308 89.4945C29.5125 91.2241 32.0299 91.5041 33.0772 90.6828C34.1245 89.8616 38.2507 87.1926 38.2507 87.1926C38.2507 87.1926 32.7996 90.3344 32.7176 93.7748C32.6356 97.2153 31.645 100.233 32.3327 102.485C32.7961 103.916 33.6314 105.203 34.7555 106.218C34.7555 106.218 33.4053 112.333 33.9542 115.842C34.0912 116.839 34.4981 117.781 35.132 118.569C35.7659 119.358 36.6035 119.963 37.5567 120.321C37.5567 120.321 36.4968 123.967 38.7176 126.723C40.9385 129.479 45.0268 132.453 47.1972 133.013C49.3676 133.573 51.1783 131.582 51.1783 131.582L53.1215 133.996L54.5096 135.719C54.5096 135.719 53.0269 140.255 55.7336 144.324C58.4402 148.392 61.2226 149.021 61.2226 149.021L66.1248 163.23L97.103 163.106Z" fill="#EDC2C2"/>
<path d="M52.8686 87.2859C54.6289 83.0989 55.3923 81.9293 57.4996 80.2931C59.6068 78.6569 59.6699 78.0285 58.6226 78.8497C57.5753 79.6709 58.0674 78.1591 58.4838 77.2695C58.9002 76.3798 57.8213 77.5059 56.9822 79.2914C56.1431 81.077 54.8118 81.5498 53.9664 83.3353C53.5481 84.2762 53.0164 85.1639 52.3828 85.9794L52.8686 87.2859Z" fill="#D9A8A8"/>
<path d="M64.7112 89.258C67.4368 87.684 70.5851 85.2203 68.2128 86.5206C65.9326 87.7658 63.5745 88.8671 61.1528 89.8179C59.3686 90.5321 57.6747 91.4486 56.1055 92.5491L56.5787 93.3765C61.2475 89.1958 61.9856 90.8258 64.7112 89.258Z" fill="#D9A8A8"/>
<path d="M34.6162 106.385L34.919 106.062C38.143 108.936 38.8181 109.745 38.9569 110.019C38.9569 110.019 40.3828 112.439 42.5532 112.949C43.0877 113.069 43.6421 113.076 44.1794 112.968C44.7168 112.861 45.2248 112.642 45.6699 112.327C46.3519 111.893 46.9306 111.318 47.3662 110.643C47.8018 109.967 48.0841 109.207 48.1936 108.414C48.4996 105.935 47.8214 103.436 46.3009 101.439C44.1053 98.7145 39.5248 95.1123 37.0453 95.4358L36.9885 95.0003C39.7267 94.6457 44.4396 98.4221 46.6479 101.166C48.2568 103.253 48.9684 105.881 48.629 108.482C48.5067 109.335 48.2008 110.152 47.7318 110.878C47.2628 111.605 46.6415 112.224 45.9097 112.694C45.4143 113.046 44.849 113.29 44.2509 113.412C43.6529 113.533 43.0356 113.528 42.4396 113.397C40.08 112.837 38.6226 110.361 38.5595 110.255L38.5279 110.18C38.4333 110.006 37.8528 109.272 34.6162 106.385Z" fill="#D9A8A8"/>
<path d="M37.6702 108.905C35.3484 105.465 39.4116 104.55 39.4116 104.55C39.4116 104.55 43.033 106.218 42.9573 106.834C42.8816 107.449 42.1876 108.003 41.9731 109.857C41.8845 110.825 41.6725 111.778 41.3422 112.694C40.0524 111.495 38.8268 110.23 37.6702 108.905Z" fill="#F8E3E3"/>
<path d="M37.4746 120.533L37.6639 120.128C38.6631 120.683 39.628 121.296 40.5535 121.964C42.9636 123.606 46.9952 126.319 47.7208 125.628L48.0362 125.939C47.1214 126.841 44.1245 124.925 40.3011 122.331C39.3958 121.677 38.452 121.077 37.4746 120.533Z" fill="#D9A8A8"/>
<path d="M43.0206 117.192C39.2351 117.503 41.2604 121.379 41.2604 121.379L46.2699 124.763L48.6548 120.651C48.6548 120.651 44.6295 117.055 43.0206 117.192Z" fill="#F8E3E3"/>
<path d="M48.2258 132.509C46.3987 131.932 44.7637 130.879 43.4939 129.461C43.4939 129.461 43.3614 127.88 44.0617 127.333C44.6905 126.91 45.371 126.567 46.087 126.312L49.4182 128.851L48.2258 132.509Z" fill="#F8E3E3"/>
<path d="M52.0364 8.54794C47.6588 4.366 42.1217 1.55843 36.1255 0.48045C30.1294 -0.597527 23.9437 0.102535 18.3512 2.49207C12.7586 4.8816 8.0105 8.85322 4.70762 13.9044C1.40474 18.9556 -0.304488 24.8593 -0.203802 30.8686C-0.103116 36.8779 1.80296 42.7228 5.27326 47.6636C8.74355 52.6044 13.6221 56.4192 19.2917 58.6253C24.9612 60.8313 31.167 61.3295 37.1237 60.0568C43.0805 58.7841 48.5206 55.7977 52.7556 51.4754C58.4265 45.6855 61.5357 37.9133 61.4009 29.865C61.266 21.8167 57.8981 14.15 52.0364 8.54794ZM13.5502 47.7799C10.0568 44.4513 7.64305 40.1757 6.61446 35.4941C5.58586 30.8124 5.98862 25.9351 7.77177 21.4792C9.55491 17.0234 12.6383 13.1891 16.6319 10.4617C20.6254 7.73423 25.3497 6.23611 30.2069 6.15686C35.0641 6.07762 39.8361 7.42081 43.9189 10.0165C48.0018 12.6122 51.2122 16.3437 53.1438 20.739C55.0755 25.1343 55.6416 29.9957 54.7707 34.7084C53.8997 39.421 51.6307 43.773 48.2509 47.2138C43.724 51.8262 37.5247 54.4769 31.0163 54.5831C24.5078 54.6893 18.223 52.2422 13.5439 47.7799H13.5502Z" fill="#954DCE"/>
<path d="M46.6728 54.6552L34.4917 57.415L53.9647 140.987L66.1458 138.227L46.6728 54.6552Z" fill="#954DCE"/>
<path d="M65.0331 102.765C58.4337 96.5931 55.5693 91.6844 53.3863 88.2813C51.2033 84.8783 52.0235 80.9215 47.9983 74.5134C43.973 68.1054 41.1338 65.2747 36.5281 66.631C31.9224 67.9872 33.4871 76.3114 35.2158 80.5793C36.9445 84.8471 38.4587 88.1569 40.2632 91.8089C42.0676 95.4608 44.1181 105.092 44.5156 109.851C44.9131 114.61 45.4367 123.743 51.1907 131.626C56.9447 139.508 65.5757 144.541 65.5757 144.541L66.5726 163.268L97.1028 163.143C97.1028 163.143 83.5822 140.006 79.5948 125.137C75.6073 110.268 67.336 104.905 65.0331 102.765Z" fill="#F9CECE"/>
<path d="M34.4586 70.7805C35.834 75.3221 37.222 77.0517 37.222 77.0517C37.222 77.0517 39.0328 77.8791 41.7583 76.3113C44.4839 74.7435 44.3514 73.1571 44.3514 73.1571L42.3199 68.5408C41.7309 67.8496 40.9336 67.3616 40.044 67.1479C39.1544 66.9342 38.2189 67.0059 37.3735 67.3525C34.3955 68.5782 34.4586 70.7805 34.4586 70.7805Z" fill="#F8E3E3"/>
</g>
<defs>
<clipPath id="clip0_707_3180">
<rect width="98" height="163" fill="white"/>
</clipPath>
</defs>
</svg>
