<svg width="248" height="164" viewBox="0 0 248 164" fill="none" xmlns="http://www.w3.org/2000/svg">
<g clip-path="url(#clip0_707_3127)">
<ellipse cx="125.204" cy="175.323" rx="74.59" ry="43.7328" fill="#FF006A"/>
<path d="M77.7431 85.2133C68.5251 104.783 79.2324 108.107 85.7382 107.323C85.7382 107.323 90.1292 112.943 90.7951 118.493C91.4611 124.043 89.5812 127.553 90.7951 133.144C96.123 157.686 147.506 153.453 154.285 143.355C161.065 133.257 158.145 124.655 158.503 112.497C158.851 100.713 156.283 82.3908 156.283 82.3908C182.855 56.9884 162.397 33.4676 147.583 33.4676C151.157 52.8487 135.355 51.8138 129.477 48.5209C123.599 45.228 97.9675 29.8777 83.622 40.9942C69.8539 51.6633 62.5053 63.9505 77.7431 85.2133Z" fill="#EDC2C2" stroke="black" stroke-width="1.64824"/>
<ellipse cx="106.78" cy="87.4136" rx="12.6537" ry="11.7657" fill="white" stroke="black" stroke-width="1.64824"/>
<ellipse cx="140.966" cy="87.4136" rx="12.6537" ry="11.7657" fill="white" stroke="black" stroke-width="1.64824"/>
<ellipse cx="140.966" cy="87.4136" rx="12.6537" ry="11.7657" fill="white" stroke="black" stroke-width="1.64824"/>
<path d="M131.865 100.289V118.715H121.653M100.563 127.372H147.848" stroke="black" stroke-width="1.64824"/>
<path d="M77.7431 85.2133C68.5251 104.783 79.2324 108.107 85.7382 107.323C80.0567 106.304 75.3717 103.175 79.9174 93.6294C80.9746 91.4094 85.7382 92.0754 85.7382 94.7393L85.7382 85.2133C89.3478 86.0947 97.2819 85.1284 106.335 82.3908C113.217 80.3097 110.109 82.9737 125.648 86.7476C153.175 89.6335 156.283 82.3908 156.283 82.3908C182.855 56.9883 162.397 33.4676 147.583 33.4676C151.157 52.8487 135.355 51.8138 129.477 48.5209C123.599 45.228 97.9675 29.8777 83.622 40.9942C69.8539 51.6633 62.5053 63.9505 77.7431 85.2133Z" fill="#954DCE" stroke="black" stroke-width="1.64824"/>
<g clip-path="url(#clip1_707_3127)">
<mask id="mask0_707_3127" style="mask-type:alpha" maskUnits="userSpaceOnUse" x="128" y="-19" width="120" height="117">
<rect x="128.258" y="-18.9229" width="119.321" height="116.692" fill="url(#paint0_linear_707_3127)"/>
</mask>
<g mask="url(#mask0_707_3127)">
<path d="M130.396 100.846C129.313 72.4306 142.007 12.4922 201.447 0.0605469" stroke="#954DCE" stroke-width="1.33196"/>
<path d="M129.747 102.844C130.811 74.4275 145.884 12.0478 206.084 4.36343" stroke="#FB2A9B" stroke-width="1.33196"/>
<path d="M130.177 102.178C136.462 75.9826 142.743 -8.3751 245.138 14.433" stroke="#FFD600" stroke-width="1.33196"/>
<path d="M244.987 17.8198C183.251 3.16824 138.845 31.5836 131.479 102.4" stroke="#46BE00" stroke-width="1.33196"/>
<path d="M246.072 22.2603C209.752 16.1185 136.332 23.7255 133.213 103.288" stroke="#03A2FC" stroke-width="1.33196"/>
<path d="M246.071 30.2518C210.184 16.5622 138.108 11.7819 136.895 102.178" stroke="#954DCE" stroke-width="1.33196"/>
<path d="M244.988 35.1357C209.679 23.518 138.844 20.9281 137.978 103.51" stroke="#46BE00" stroke-width="1.33196"/>
<path d="M246.288 45.3475C209.679 31.9539 137.025 24.4801 139.278 101.734" stroke="#FB2A9B" stroke-width="1.33196"/>
<path d="M245.638 49.5653C213.218 35.8757 145.777 27.1439 135.379 101.734" stroke="#46BE00" stroke-width="1.33196"/>
<path d="M246.071 54.4497C208.09 42.092 146.209 31.1395 139.277 102.4" stroke="#954DCE" stroke-width="1.33196"/>
<path d="M245.637 58.0012C213.939 44.3856 148.678 34.0258 141.227 101.512" stroke="#46BE00" stroke-width="1.33196"/>
<path d="M244.68 56.8079C212.184 45.3343 146.405 39.3472 143.253 107.187" stroke="#FFD600" stroke-width="1.33196"/>
<path d="M245.637 66.4365C209.462 51.7849 138.064 38.5985 141.876 103.066" stroke="#03A2FC" stroke-width="1.33196"/>
<path d="M246.938 72.6523C216.828 56.8907 153.792 40.5964 142.527 101.512" stroke="#FB2A9B" stroke-width="1.33196"/>
<path d="M246.071 76.4266C217.405 63.8469 156.001 51.0748 139.711 100.624" stroke="#46BE00" stroke-width="1.33196"/>
<path d="M247.804 79.5345C218.994 68.1388 157.994 55.7812 144.477 97.516" stroke="#FB2A9B" stroke-width="1.33196"/>
<path d="M246.071 84.4184C218.849 71.9867 160.376 57.6459 144.26 99.736" stroke="#46BE00" stroke-width="1.33196"/>
<path d="M246.721 89.9683C222.171 76.6486 167.308 60.1767 144.26 100.846" stroke="#954DCE" stroke-width="1.33196"/>
</g>
</g>
<g clip-path="url(#clip2_707_3127)">
<mask id="mask1_707_3127" style="mask-type:alpha" maskUnits="userSpaceOnUse" x="0" y="-19" width="120" height="117">
<rect width="119.321" height="116.692" transform="matrix(-1 0 0 1 119.489 -18.9229)" fill="url(#paint1_linear_707_3127)"/>
</mask>
<g mask="url(#mask1_707_3127)">
<path d="M117.35 100.846C118.433 72.4306 105.739 12.4922 46.2989 0.0605469" stroke="#954DCE" stroke-width="1.33196"/>
<path d="M117.999 102.844C116.935 74.428 101.862 12.0483 41.6616 4.36392" stroke="#FB2A9B" stroke-width="1.33196"/>
<path d="M117.569 102.178C111.285 75.9826 105.003 -8.3751 2.60763 14.433" stroke="#FFD600" stroke-width="1.33196"/>
<path d="M2.75891 17.8203C64.4948 3.16873 108.901 31.5841 116.268 102.4" stroke="#46BE00" stroke-width="1.33196"/>
<path d="M1.67446 22.2603C37.9943 16.1185 111.414 23.7255 114.533 103.288" stroke="#03A2FC" stroke-width="1.33196"/>
<path d="M1.67535 30.2523C37.562 16.5627 109.638 11.7824 110.852 102.178" stroke="#954DCE" stroke-width="1.33196"/>
<path d="M2.75853 35.1357C38.0675 23.518 108.902 20.9281 109.769 103.51" stroke="#46BE00" stroke-width="1.33196"/>
<path d="M1.4583 45.3475C38.067 31.9539 110.721 24.4801 108.468 101.734" stroke="#FB2A9B" stroke-width="1.33196"/>
<path d="M2.10787 49.5653C34.5286 35.8757 101.969 27.1439 112.367 101.734" stroke="#46BE00" stroke-width="1.33196"/>
<path d="M1.67536 54.4497C39.656 42.092 101.537 31.1395 108.469 102.4" stroke="#954DCE" stroke-width="1.33196"/>
<path d="M2.10894 58.0012C33.8076 44.3856 99.0678 34.0258 106.52 101.512" stroke="#46BE00" stroke-width="1.33196"/>
<path d="M3.06603 56.8079C35.5618 45.3343 101.341 39.3472 104.493 107.187" stroke="#FFD600" stroke-width="1.33196"/>
<path d="M2.10907 66.437C38.2845 51.7854 109.682 38.599 105.87 103.066" stroke="#03A2FC" stroke-width="1.33196"/>
<path d="M0.808162 72.6528C30.9183 56.8912 93.9545 40.5968 105.219 101.512" stroke="#FB2A9B" stroke-width="1.33196"/>
<path d="M1.67499 76.4266C30.341 63.8469 91.7454 51.0748 108.035 100.624" stroke="#46BE00" stroke-width="1.33196"/>
<path d="M-0.0579662 79.5345C28.7524 68.1388 89.7525 55.7812 103.27 97.516" stroke="#FB2A9B" stroke-width="1.33196"/>
<path d="M1.67517 84.4184C28.897 71.9867 87.3698 57.6459 103.486 99.736" stroke="#46BE00" stroke-width="1.33196"/>
<path d="M1.02532 89.9683C25.5755 76.6486 80.438 60.1767 103.486 100.846" stroke="#954DCE" stroke-width="1.33196"/>
</g>
</g>
</g>
<defs>
<linearGradient id="paint0_linear_707_3127" x1="136.931" y1="97.7695" x2="214.989" y2="39.4233" gradientUnits="userSpaceOnUse">
<stop offset="0.421875"/>
<stop offset="1" stop-opacity="0"/>
</linearGradient>
<linearGradient id="paint1_linear_707_3127" x1="8.67307" y1="116.692" x2="86.7308" y2="58.3462" gradientUnits="userSpaceOnUse">
<stop offset="0.421875"/>
<stop offset="1" stop-opacity="0"/>
</linearGradient>
<clipPath id="clip0_707_3127">
<rect width="247.577" height="164" fill="white"/>
</clipPath>
<clipPath id="clip1_707_3127">
<path d="M128.312 -18.9229H247.745V98.29H140.3C133.68 98.29 128.312 92.9229 128.312 86.3023V-18.9229Z" fill="white"/>
</clipPath>
<clipPath id="clip2_707_3127">
<path d="M119.434 -18.9229H0.000808716V98.29H107.446C114.067 98.29 119.434 92.9229 119.434 86.3023V-18.9229Z" fill="white"/>
</clipPath>
</defs>
</svg>
