<svg width="113" height="90" viewBox="0 0 113 90" fill="none" xmlns="http://www.w3.org/2000/svg">
<path d="M5.61548 86.7049L35.8133 3.83911C35.9818 3.36441 36.4394 3.04315 36.9547 3.04315L106.496 3C106.858 3 107.147 3.28769 107.147 3.64731V29.1851C107.147 29.3721 107.041 29.5543 106.882 29.6406L5.61548 86.7049Z" stroke="#9AA8B2" stroke-width="0.848734" stroke-miterlimit="10"/>
<path d="M57.8853 14.6038C57.9383 14.997 58.0587 15.2847 58.2465 15.4573C58.4392 15.6251 58.7185 15.7114 59.0894 15.7114C59.4843 15.7114 59.7829 15.5724 60.0045 15.2847C60.2164 14.997 60.3368 14.5846 60.3464 14.0428H58.4103V13.2804H60.3464C60.3272 12.7386 60.2067 12.3214 59.9852 12.0385C59.7588 11.7508 59.4506 11.6118 59.046 11.6118C58.6944 11.6118 58.4199 11.6981 58.2369 11.8755C58.0587 12.0577 57.9287 12.3454 57.8853 12.7386H56.9365C57.004 12.144 57.2159 11.6741 57.5867 11.348C57.9624 11.0172 58.4488 10.8494 59.0557 10.8494C59.5036 10.8494 59.9081 10.9549 60.2501 11.1658C60.592 11.3768 60.8569 11.6741 61.04 12.0673C61.2182 12.4605 61.3145 12.916 61.3145 13.429V13.8941C61.3145 14.4168 61.2278 14.8723 61.0496 15.2655C60.8666 15.6587 60.6113 15.956 60.2694 16.1669C59.9322 16.3779 59.5469 16.4834 59.099 16.4834C58.4729 16.4834 57.972 16.3252 57.6012 15.9991C57.2159 15.6683 57.004 15.2127 56.951 14.6278L57.8853 14.6038Z" fill="#9AA8B2"/>
<path d="M63.8478 14.0427H63.2025V16.3874H62.2537V10.902H63.2025V13.2035H63.7226L65.3409 10.902H66.5112L64.6184 13.5248L66.6701 16.3874H65.5191L63.8478 14.0427Z" fill="#9AA8B2"/>
<path d="M70.6537 13.5009C70.6537 12.8967 70.5382 12.4316 70.3118 12.1008C70.0806 11.7843 69.7579 11.6117 69.3341 11.6117C68.9199 11.6117 68.5972 11.7699 68.366 12.1008C68.13 12.4172 68.0144 12.8775 68.0048 13.4721V13.7886C68.0048 14.3927 68.1204 14.8626 68.3564 15.1887C68.5876 15.5195 68.9199 15.6778 69.3341 15.6778C69.7579 15.6778 70.0806 15.5195 70.3118 15.1887C70.5382 14.8722 70.6537 14.3927 70.6537 13.779V13.5009ZM71.6025 13.7886C71.6025 14.3304 71.5062 14.7955 71.3232 15.1983C71.1354 15.6058 70.8657 15.9223 70.5285 16.1333C70.1866 16.3587 69.782 16.4641 69.3341 16.4641C68.8862 16.4641 68.4913 16.3587 68.1397 16.1333C67.7881 15.9127 67.5232 15.6058 67.3305 15.2127C67.1427 14.8195 67.0464 14.3496 67.0464 13.8221V13.5105C67.0464 12.983 67.1427 12.5035 67.3305 12.1008C67.5232 11.698 67.7881 11.3767 68.1397 11.1657C68.4913 10.9452 68.8862 10.8349 69.3341 10.8349C69.782 10.8349 70.1769 10.9452 70.5285 11.1562C70.8657 11.3671 71.145 11.674 71.3232 12.0816C71.5159 12.4844 71.6122 12.9495 71.6122 13.4913L71.6025 13.7886Z" fill="#9AA8B2"/>
<path d="M76.8952 10.902V16.3874H75.9464V11.6644H74.2655L74.1692 13.7886C74.1258 14.4455 74.0488 14.9681 73.9235 15.3278C73.7935 15.6874 73.6153 15.9655 73.3793 16.1237C73.1481 16.2963 72.8254 16.3778 72.4305 16.3778H72.1897V15.6155L72.3342 15.6059C72.5605 15.5819 72.7291 15.51 72.8495 15.3709C72.9651 15.2414 73.0614 15.0401 73.124 14.7668C73.1867 14.4982 73.23 14.0955 73.2541 13.5776L73.36 10.8925L76.8952 10.902Z" fill="#9AA8B2"/>
<path d="M81.471 13.5009C81.471 12.8967 81.3554 12.4316 81.1339 12.1008C80.8979 11.7843 80.58 11.6117 80.1514 11.6117C79.7372 11.6117 79.4193 11.7699 79.1833 12.1008C78.9473 12.4172 78.8317 12.8775 78.8221 13.4721V13.7886C78.8221 14.3927 78.9377 14.8626 79.1737 15.1887C79.4097 15.5195 79.7372 15.6778 80.1514 15.6778C80.58 15.6778 80.9075 15.5195 81.1339 15.1887C81.3554 14.8722 81.471 14.3927 81.471 13.779V13.5009ZM82.4294 13.7886C82.4294 14.3304 82.3379 14.7955 82.1549 15.1983C81.9623 15.6058 81.6974 15.9223 81.3554 16.1333C81.0038 16.3587 80.6089 16.4641 80.1658 16.4641C79.7179 16.4641 79.323 16.3587 78.9714 16.1333C78.6198 15.9127 78.3549 15.6058 78.1623 15.2127C77.9696 14.8195 77.8733 14.3496 77.8733 13.8221V13.5105C77.8733 12.983 77.9696 12.5035 78.1623 12.1008C78.3549 11.698 78.6198 11.3767 78.9714 11.1657C79.323 10.9452 79.7179 10.8349 80.1658 10.8349C80.6089 10.8349 81.0038 10.9452 81.3554 11.1562C81.707 11.3671 81.9719 11.674 82.1549 12.0816C82.3476 12.4844 82.4439 12.9495 82.4439 13.4913L82.4294 13.7886Z" fill="#9AA8B2"/>
<path d="M86.9031 11.674H84.3602V16.4018H83.4114V10.9116H86.9031V11.674Z" fill="#9AA8B2"/>
<path d="M91.07 10.902H92.0285V16.3874H91.07V12.4843L88.6523 16.3874H87.6938V10.902H88.6523V14.8194L91.07 10.902Z" fill="#9AA8B2"/>
<path d="M93.9547 12.6186C93.9547 12.9302 94.0366 13.1748 94.21 13.3426C94.3785 13.5104 94.6434 13.5967 94.9854 13.5967H95.8716V11.6644H94.9854C94.6338 11.6644 94.3689 11.7507 94.2003 11.9185C94.0366 12.0911 93.9547 12.3213 93.9547 12.6186ZM95.8812 16.3874V14.3399H94.8168L93.7524 16.3874H92.7266L93.9547 14.0522C93.3141 13.7454 92.9963 13.2563 92.9963 12.5802C92.9963 12.0576 93.1648 11.6452 93.5164 11.3479C93.8584 11.0506 94.3496 10.902 94.9661 10.902H96.8396V16.3874H95.8812Z" fill="#9AA8B2"/>
<path d="M35.3459 23.0907H97.3308C97.7739 23.0907 98.1255 23.4503 98.1255 23.8867V52.8815C98.1255 53.222 97.9136 53.5193 97.5957 53.6344L6.61711 86.6522C5.94283 86.8967 5.31672 86.2063 5.61533 85.5685L34.6187 23.5558C34.7584 23.2681 35.0377 23.0907 35.3459 23.0907Z" fill="#9AA8B2"/>
<path d="M70.5044 43.9295H68.655V51.9226H69.9072V48.921H70.5044C71.7615 48.921 72.3779 48.221 72.3779 46.9455V45.905C72.3779 44.6296 71.7615 43.9295 70.5044 43.9295ZM71.1209 47.0222C71.1209 47.5928 70.909 47.775 70.5044 47.775H69.9072V45.0659H70.5044C70.909 45.0659 71.1209 45.2481 71.1209 45.8187V47.0222ZM75.0509 43.8432C73.818 43.8432 73.1485 44.5768 73.1485 45.8523V50.0047C73.1485 51.2753 73.818 52.0089 75.0509 52.0089C76.2887 52.0089 76.9678 51.2753 76.9678 50.0047V45.8523C76.9678 44.5672 76.2984 43.8432 75.0509 43.8432ZM75.7108 50.0766C75.7108 50.652 75.4555 50.863 75.0654 50.863C74.6705 50.863 74.4152 50.6424 74.4152 50.0766V45.766C74.4152 45.1954 74.6705 44.9796 75.0654 44.9796C75.47 44.9796 75.7108 45.1954 75.7108 45.766V50.0766ZM86.2005 46.629V45.8523C86.2005 44.5672 85.56 43.8432 84.327 43.8432C83.0941 43.8432 82.4535 44.5768 82.4535 45.8523V50.0047C82.4535 51.2753 83.0941 52.0089 84.327 52.0089C85.56 52.0089 86.2005 51.2753 86.2005 50.0047V48.9402H85.0109V50.0766C85.0109 50.652 84.7508 50.8534 84.3607 50.8534C83.9562 50.8534 83.7105 50.652 83.7105 50.0766V45.766C83.7105 45.1954 83.9658 44.9796 84.3607 44.9796C84.7653 44.9796 85.0109 45.1954 85.0109 45.766V46.629H86.2005ZM81.5914 46.629V45.8523C81.5914 44.5672 80.9508 43.8432 79.7179 43.8432C78.4801 43.8432 77.8444 44.5768 77.8444 45.8523V50.0047C77.8444 51.2753 78.4801 52.0089 79.7179 52.0089C80.9508 52.0089 81.5914 51.2753 81.5914 50.0047V48.9402H80.397V50.0766C80.397 50.652 80.1417 50.8534 79.7468 50.8534C79.3567 50.8534 79.0966 50.652 79.0966 50.0766V45.766C79.0966 45.1954 79.3567 44.9796 79.7468 44.9796C80.1513 44.9796 80.397 45.1954 80.397 45.766V46.629H81.5914ZM89.7067 43.9391L88.6809 47.2332L88.2234 48.9929V43.9391H87.106V51.937H88.3967L89.4467 48.2737L89.962 46.3078V51.937H91.089V43.9391H89.7067ZM94.6964 43.9391L93.6657 47.2332L93.2081 48.9929V43.9391H92.0908V51.937H93.3767L94.4315 48.2737L94.942 46.3078V51.937H96.0834V43.9391H94.6964ZM73.6783 34.2581C72.4454 34.2581 71.7615 34.9918 71.7615 36.2672V40.4148C71.7615 41.6903 72.4454 42.4239 73.6783 42.4239C74.9161 42.4239 75.5952 41.6903 75.5952 40.4148V36.2672C75.5952 34.9822 74.9161 34.2581 73.6783 34.2581ZM74.3285 40.5011C74.3285 41.0765 74.0733 41.2875 73.6783 41.2875C73.2834 41.2875 73.0281 41.0765 73.0281 40.5011V36.1905C73.0281 35.6151 73.2834 35.4041 73.6783 35.4041C74.0829 35.4041 74.3285 35.6151 74.3285 36.1905V40.5011ZM85.0302 34.3445H83.7731L82.1356 37.8256V34.3445H80.8641V42.328H82.1212V39.873L82.5065 39.1442L83.7298 42.328H85.0302L83.2723 37.8975L85.0302 34.3445ZM94.8264 34.354V42.3376H96.0834V34.354H94.8264ZM85.6804 34.354V35.4904H87V42.3376H88.2571V35.4904H89.5767V34.354H85.6804ZM79.9635 35.5V34.3636H76.5344V42.3376H79.9635V41.2012H77.7914V38.8661H79.5156V37.7297H77.7914V35.5H79.9635ZM92.2305 37.3461H91.6332V34.3445H90.3762V42.328H92.2305C93.4827 42.328 94.104 41.6375 94.104 40.3525V39.312C94.104 38.0461 93.4827 37.3461 92.2305 37.3461ZM92.8469 40.4388C92.8469 41.0094 92.635 41.1916 92.2305 41.1916H91.6332V38.4825H92.2305C92.635 38.4825 92.8469 38.6647 92.8469 39.2353V40.4388ZM62.2735 34.354V42.3376H63.5402V35.4904H64.9706V42.3376H66.2469V34.354H62.2735ZM69.1222 34.3445H67.2679V42.328H68.525V39.3216H69.1222C70.3792 39.3216 70.9957 38.6215 70.9957 37.3461V36.3056C70.9957 35.0445 70.3792 34.3445 69.1222 34.3445ZM69.7386 37.4324C69.7386 38.0078 69.5267 38.1852 69.1222 38.1852H68.525V35.4904H69.1222C69.5267 35.4904 69.7386 35.6726 69.7386 36.2432V37.4324ZM71.7422 24.7546L71.5399 30.7962C71.5158 31.5394 71.3376 31.6161 70.7597 31.6161V32.7525H70.9523C72.2094 32.7525 72.744 32.1771 72.7825 30.7243L72.9222 25.891H74.0203V32.7382H75.2966V24.7546H71.7422ZM58.0593 24.6731C56.8215 24.6731 56.1424 25.4019 56.1424 26.6774V30.8298C56.1424 32.1052 56.8215 32.8341 58.0593 32.8341C59.2922 32.8341 59.9617 32.1052 59.9617 30.8298V26.6774C59.9617 25.4019 59.2922 24.6731 58.0593 24.6731ZM58.695 30.9161C58.695 31.4867 58.4398 31.6977 58.0448 31.6977C57.6403 31.6977 57.3995 31.4867 57.3995 30.9161V26.6054C57.3995 26.0301 57.6547 25.8191 58.0448 25.8191C58.4398 25.8191 58.695 26.0396 58.695 26.6054V30.9161ZM63.6076 24.769V28.183H62.1675V24.769H60.9105V32.7525H62.1675V29.3338H63.6076V32.7525H64.8839V24.769H63.6076ZM68.8236 24.7546H66.9693L65.693 32.7382H66.8441L67.0656 31.2949H68.6116L68.8236 32.7382H70.0999L68.8236 24.7546ZM67.2246 30.2112L67.8314 26.1691L68.4383 30.2112H67.2246ZM83.6335 24.769V28.183H82.2079V24.769H80.9508V32.7525H82.2079V29.3338H83.6335V32.7525H84.9146V24.769H83.6335ZM96.0834 25.9006V24.769H92.6446V32.7525H96.0834V31.6018H93.9113V29.2666H95.6355V28.1302H93.9113V25.9006H96.0834ZM90.3762 24.769V32.7525H91.6332V24.769H90.3762ZM87.7754 27.761H87.183V24.7546H85.926V32.7382H87.7754C89.0325 32.7382 89.6634 32.0381 89.6634 30.7674V29.7269C89.6634 28.4611 89.0421 27.761 87.7754 27.761ZM88.3967 30.849C88.3967 31.4243 88.18 31.6018 87.7754 31.6018H87.183V28.907H87.7754C88.18 28.907 88.3967 29.0892 88.3967 29.6598V30.849ZM78.1815 27.761H77.5843V24.7546H76.3321V32.7382H78.1815C79.4385 32.7382 80.055 32.0381 80.055 30.7674V29.7269C80.055 28.4611 79.4385 27.761 78.1815 27.761ZM78.8028 30.849C78.8028 31.4243 78.5764 31.6018 78.1815 31.6018H77.5843V28.907H78.1815C78.5764 28.907 78.8028 29.0892 78.8028 29.6598V30.849ZM43.7358 24.7546H41.9056L40.6149 32.7382H41.7852L42.002 31.2949H43.5432L43.7551 32.7382H45.0217L43.7358 24.7546ZM42.1609 30.2112L42.7677 26.1691L43.3746 30.2112H42.1609ZM49.8043 31.6353V24.769H48.528V31.6161H47.0879V24.769H45.8309V32.7525H49.1252V33.8218H50.3485V31.6353H49.8043ZM53.8306 24.769L52.7951 28.0679L52.3376 29.8324V24.7786H51.2202V32.7621H52.511L53.5657 29.0988L54.0763 27.1329V32.7621H55.2129V24.769H53.8306ZM38.5391 24.769V28.183H37.1135V24.769H35.8564V32.7525H37.1135V29.3338H38.5391V32.7525H39.8154V24.769H38.5391Z" fill="#E3F0F8"/>
</svg>
