<svg width="118" height="128" viewBox="0 0 118 128" fill="none" xmlns="http://www.w3.org/2000/svg">
<g clip-path="url(#clip0_707_3211)">
<path fill-rule="evenodd" clip-rule="evenodd" d="M54.4271 96.8785C55.0088 92.7103 55.4261 88.1039 56.5441 83.4014C57.3374 79.8643 59.5528 75.3564 58.0843 72.9002C62.0095 64.3617 65.9608 56.0295 70.0333 47.2785C70.5562 46.1582 71.5989 44.9007 71.0025 43.5627C69.4917 42.6275 68.49 43.9853 67.5492 44.5462C65.7865 42.4331 63.002 41.9285 60.9843 40.7507C59.4715 41.3183 56.5901 39.6711 55.3112 40.8111C54.4214 39.8369 53.2648 39.1495 51.9873 38.8356C50.7627 38.6031 49.549 39.1293 48.8569 38.9449C47.7882 49.7263 48.5385 60.3102 48.4392 70.8471C47.1405 71.8934 46.2781 73.391 46.0217 75.0449C45.8282 76.2309 46.2739 77.3525 46.1601 78.4656C45.7823 83.582 43.2011 88.9544 42.2999 93.861C38.8371 92.7468 35.7268 93.1704 33.8001 91.3846C31.6977 89.4131 31.1035 83.584 30.7431 80.3863C30.01 72.7045 28.3625 65.1391 25.836 57.8527C24.6248 54.3708 23.1111 50.7837 22.4349 47.1772C21.8222 44.6101 21.6426 41.9576 21.9037 39.3306C22.7391 33.1428 25.5737 28.2561 28.4086 24.1348C31.2435 20.0135 34.2779 16.7392 38.3916 14.4661C44.6431 10.9636 51.6002 8.92727 58.7434 8.5091C61.4318 8.22408 64.1415 8.20457 66.8337 8.45083C72.3832 9.26432 76.9088 12.6242 80.9619 15.1843C84.9134 17.5344 88.3388 20.682 91.0225 24.429C93.6295 28.2279 95.8314 32.0168 96.6617 36.5511C97.2331 38.9834 97.4436 41.4873 97.2862 43.9815C97.0127 46.8862 96.5446 49.769 95.8853 52.6103C94.7128 57.7335 92.3519 62.5049 88.9956 66.5344C86.0613 69.968 82.4107 72.7198 79.35 75.8696C74.9117 80.4378 70.9876 87.1544 67.1283 93.7034C65.899 95.7931 64.287 98.2971 62.4373 98.4693C59.9178 98.6808 57.2054 96.9262 54.4271 96.8785Z" fill="#FFA800"/>
<path fill-rule="evenodd" clip-rule="evenodd" d="M54.7221 52.8863C54.7692 53.4436 55.3381 53.4908 55.6327 53.6306C54.7934 57.7767 52.8518 63.8501 52.1417 68.0256C52.1387 68.5601 52.0622 69.0915 51.9143 69.6048C51.4873 70.419 50.1823 70.4233 49.4552 70.3949C49.4582 63.8814 49.3077 55.6293 49.2077 48.646C49.192 47.5856 49.2779 46.1929 49.3789 44.8948C49.5423 42.6724 49.2542 38.4251 52.6448 39.942C55.8535 41.3811 54.1161 48.8857 55.3843 51.9524C55.2963 52.5064 54.811 52.3689 54.7221 52.8863Z" fill="#FFA800"/>
<path fill-rule="evenodd" clip-rule="evenodd" d="M59.6864 53.6032C58.6594 52.9794 57.5318 52.5415 56.3546 52.3092C55.7009 48.8481 55.407 45.328 55.4775 41.8058C57.7316 41.6069 62.167 42.0581 64.9847 43.8276C65.9868 44.4469 66.6207 46.0212 67.7711 45.8177C68.7633 45.633 68.8595 44.0331 70.0366 44.1546C69.8583 46.8473 66.8023 48.5223 65.1143 49.9521C63.2257 51.5095 61.5396 52.9306 59.6864 53.6032Z" fill="#FFA800"/>
<path fill-rule="evenodd" clip-rule="evenodd" d="M57.0868 54.371C58.6682 55.3951 57.2339 58.3585 56.6458 60.3751C56.1794 62.0913 55.7262 64.4757 55.3451 66.1749C54.9173 68.0821 54.7745 70.455 52.9773 70.1107C53.147 65.0745 55.2606 59.1222 56.7939 54.3045L57.0868 54.371Z" fill="white"/>
<path fill-rule="evenodd" clip-rule="evenodd" d="M55.0251 79.7956C53.3438 79.7419 53.7148 77.3207 52.4701 76.7739C50.9097 76.1007 49.367 77.0442 48.7769 78.7871C48.129 78.5671 47.7727 78.8233 47.1848 78.6989C47.5185 76.5386 48.2133 74.4507 49.2398 72.5237C51.3325 71.2678 55.7285 72.0563 56.2821 74.7968C56.4673 76.5604 56.0216 78.3328 55.0251 79.7956Z" fill="white"/>
<path fill-rule="evenodd" clip-rule="evenodd" d="M50.7483 79.6447C51.0081 75.7405 53.8842 80.8031 50.7483 79.6447V79.6447Z" fill="white"/>
<path fill-rule="evenodd" clip-rule="evenodd" d="M51.2657 95.3502C50.0924 94.9289 50.8236 92.5166 51.0365 90.9614C51.4563 87.9591 52.6813 82.7798 53.2918 82.1167C53.4071 81.9851 53.5555 81.8872 53.7213 81.8331C53.8872 81.7791 54.0644 81.7709 54.2345 81.8096C54.4046 81.8482 54.5612 81.9321 54.6879 82.0526C54.8146 82.173 54.9068 82.3256 54.9548 82.4942C54.0096 86.507 53.3601 92.9558 51.2657 95.3502Z" fill="white"/>
<path fill-rule="evenodd" clip-rule="evenodd" d="M48.3854 81.1397C47.8765 85.0238 47.1472 90.6982 45.3631 94.0103C45.1449 90.0978 45.9424 85.5322 46.981 80.8208L48.3854 81.1397Z" fill="white"/>
<path fill-rule="evenodd" clip-rule="evenodd" d="M50.7635 83.1738C51.6222 83.7058 51.0153 84.9984 50.8179 85.9193C50.1899 88.7195 49.49 92.6878 48.5043 95.0242C47.6726 94.4527 47.7921 92.7488 47.9815 91.3796C48.3269 88.6442 49.1044 85.9819 50.2844 83.4932C50.2942 83.407 50.3342 83.3271 50.3973 83.268C50.4603 83.2088 50.5423 83.1742 50.6285 83.1704L50.7635 83.1738Z" fill="white"/>
<path fill-rule="evenodd" clip-rule="evenodd" d="M35.5094 95.1077L35.5956 95.1272C36.4417 95.3922 37.198 95.573 37.4631 95.6423C40.3769 96.4588 43.3724 96.9111 46.3036 97.6494C49.2349 98.3878 52.2317 98.9953 55.1958 99.6683C56.5916 99.9852 58.0128 100.189 59.4145 100.48C60.6052 100.827 61.8441 100.976 63.0825 100.921C63.0825 100.921 63.0825 100.921 63.0942 100.869C63.4082 100.357 62.7716 99.885 62.253 99.6943C60.5738 98.7027 58.2024 98.4558 56.1675 98.1214L53.0631 97.5897C52.172 97.3236 51.2906 97.0142 50.4167 96.752C48.5158 96.1838 46.589 95.6096 44.6445 95.1955C42.9212 94.8043 41.0928 94.3163 39.3193 94.0685C38.4401 93.9509 37.5162 93.7502 36.6074 93.6441L35.7321 93.5092C35.5658 93.4578 35.3958 93.4192 35.2237 93.3938C34.9713 93.3406 34.7125 93.3248 34.4555 93.3469L34.3952 93.3332C34.2184 93.3416 34.0452 93.3859 33.886 93.4636C33.858 93.4532 33.8279 93.45 33.7984 93.4545C33.7689 93.4589 33.741 93.4708 33.7173 93.4891C33.6243 93.5541 33.5357 93.6253 33.4522 93.7022C33.1679 94.2025 34.3265 94.7298 35.5094 95.1077Z" fill="#B9BFCD"/>
<path fill-rule="evenodd" clip-rule="evenodd" d="M37.8314 98.8054C38.9366 98.9651 40.0483 99.1356 41.1504 99.3493C43.66 99.828 46.1513 100.348 48.6511 100.87C51.151 101.392 53.6675 101.799 56.1752 102.287C58.2876 102.753 60.4322 103.057 62.5905 103.197C62.3799 102.238 61.1525 102.26 60.2853 102.008C52.5474 99.7685 42.0955 98.3248 34.4718 95.7376C33.9318 95.9247 33.7858 97.5042 33.8215 98.0316C35.1131 98.2884 36.4536 98.529 37.8314 98.8054Z" fill="#B9BFCD"/>
<path fill-rule="evenodd" clip-rule="evenodd" d="M58.6841 103.858C58.0475 103.668 57.3985 103.493 56.7581 103.321C50.3648 102.152 44.0036 100.516 37.5477 99.4239C36.3176 99.1811 35.0753 99.0055 33.8263 98.8979C33.1679 98.744 32.4843 98.7349 31.8221 98.8711L31.6475 98.9225C31.5198 98.9817 31.4167 99.084 31.3563 99.2117C31.3389 99.2459 31.3303 99.2839 31.3311 99.3223C31.332 99.3607 31.3424 99.3982 31.3613 99.4315C31.8695 100.194 33.2314 100.339 34.0547 100.544C34.3914 100.643 34.7339 100.721 35.0801 100.777C38.4864 101.55 41.979 102.249 45.5576 102.873C49.2432 103.519 53.0135 104.028 56.5231 104.288L58.859 104.572C59.2209 104.654 60.2723 104.811 60.5497 104.382C59.9121 104.237 59.288 104.032 58.6841 103.858Z" fill="#B9BFCD"/>
<path fill-rule="evenodd" clip-rule="evenodd" d="M60.904 105.265C58.3413 104.902 54.678 104.763 52.027 104.47C46.4722 103.801 40.6197 102.199 35.2084 101.335C34.5179 101.224 32.6604 100.584 32.4796 101.39C32.2987 102.196 32.6189 102.141 33.3299 102.403L33.7177 102.491L34.4723 102.599C34.748 102.661 35.0154 102.64 35.1638 102.664L35.6205 102.768C37.0925 102.947 38.5684 103.109 40.0142 103.365C41.4601 103.62 42.7996 103.906 44.1801 104.21C49.664 105.155 55.255 106.187 60.7542 107.427C60.9282 107.097 61.0314 106.734 61.0572 106.362C61.083 105.989 61.0308 105.616 60.904 105.265Z" fill="#B9BFCD"/>
<path fill-rule="evenodd" clip-rule="evenodd" d="M32.5861 103.819C34.423 104.027 36.2672 104.363 38.0472 104.704C40.7311 105.213 43.3927 105.781 46.066 106.296C48.7393 106.812 51.4941 107.328 54.2252 107.748C55.6013 107.951 56.9766 108.118 58.3605 108.286C59.4628 108.418 60.7386 108.826 61.8314 108.637C61.8638 108.551 61.865 108.456 61.8348 108.369C61.8046 108.282 61.7449 108.209 61.6663 108.162C61.5985 108.131 61.5252 108.114 61.4508 108.113C60.357 107.989 59.271 107.804 58.198 107.557C56.4058 107.15 54.5989 106.849 52.7911 106.511C50.4086 106.153 48.0629 105.629 45.7087 105.104C43.4421 104.753 41.184 104.405 38.9251 104.019C38.8941 103.983 38.8522 103.957 38.8056 103.947C37.9957 103.763 37.1874 103.652 36.3686 103.548L35.1537 103.272L34.4057 103.175C33.7736 103.087 32.803 102.812 31.8789 102.693C31.4931 102.686 31.1078 102.723 30.7307 102.806C30.526 102.794 30.3235 102.854 30.1582 102.976C30.127 102.994 30.1009 103.019 30.0825 103.05C30.0641 103.08 30.0541 103.115 30.0534 103.151C30.0527 103.187 30.0613 103.222 30.0785 103.254C30.0957 103.285 30.1208 103.312 30.1513 103.33C30.1663 103.358 30.1871 103.383 30.2123 103.403C30.2375 103.423 30.2665 103.437 30.2975 103.445C30.5807 103.533 30.8745 103.582 31.1708 103.589L32.5861 103.819Z" fill="#B9BFCD"/>
<path fill-rule="evenodd" clip-rule="evenodd" d="M31.9924 106.026C34.0713 106.971 36.6505 106.938 38.8652 107.358C41.4696 107.859 44.0059 108.38 46.5805 108.891C49.1552 109.403 51.5953 110.03 54.1163 110.538C56.2531 111.054 58.417 111.448 60.5978 111.718C60.7591 111.066 60.8423 110.397 60.8457 109.725C51.0705 107.888 40.6319 105.901 31.3495 104.249C31.0017 104.872 31.6254 105.441 31.9924 106.026Z" fill="#B9BFCD"/>
<path fill-rule="evenodd" clip-rule="evenodd" d="M61.1619 112.712C60.9683 112.475 60.7147 112.294 60.4278 112.19C59.437 112.093 58.4521 111.942 57.4774 111.739C50.6318 110.567 42.2722 108.879 35.9486 107.762C32.8414 107.203 30.6392 106.201 29.4835 108.326C39.9191 110.65 51.92 113.948 61.0736 113.63L61.1426 113.646C61.1744 113.64 61.2045 113.627 61.2308 113.607C61.257 113.588 61.2787 113.563 61.2943 113.535C61.3408 113.473 61.3744 113.402 61.3929 113.326C61.4115 113.25 61.4147 113.172 61.4023 113.095C61.39 113.018 61.3623 112.945 61.321 112.879C61.2796 112.813 61.2255 112.756 61.1619 112.712Z" fill="#B9BFCD"/>
<path fill-rule="evenodd" clip-rule="evenodd" d="M59.7447 114.632L59.4862 114.573C54.2998 114.361 47.7155 112.994 41.1428 111.575C40.161 111.22 39.1394 110.988 38.1012 110.884C35.3698 110.264 32.6784 109.708 30.1324 109.23L29.9773 109.195C29.3484 109.334 29.53 110.059 29.9494 110.409C30.4018 110.79 30.918 111.086 31.4738 111.284C33.9749 112.608 37.5053 112.653 40.7781 113.241C45.7957 114.125 51.4378 115.616 55.9232 116.005C57.4469 116.196 59.7081 116.774 59.7447 114.632Z" fill="#B9BFCD"/>
<path fill-rule="evenodd" clip-rule="evenodd" d="M32.8454 114.337C34.2132 114.739 35.5946 115.08 36.9915 115.351C39.592 115.869 42.1925 116.386 44.8416 116.969C49.9421 118.013 55.1014 118.74 60.2904 119.147C60.2244 117.665 59.3199 117.378 57.8259 117.175C49.4725 116.08 41.1931 114.474 33.0338 112.366C31.7377 112.008 30.4001 111.149 29.0967 111.873C29.067 111.967 29.0455 112.062 29.0325 112.159C30.0267 113.293 31.3687 114.059 32.8454 114.337Z" fill="#B9BFCD"/>
<path fill-rule="evenodd" clip-rule="evenodd" d="M58.5007 120.18C49.6576 118.992 38.6966 116.467 30.1466 114.416C31.086 116.042 31.2718 119.009 33.5644 120.212C34.8111 120.635 36.0854 120.97 37.3782 121.215L39.1816 121.734C42.0027 122.156 44.7219 122.992 47.5139 123.543C48.9866 123.89 50.4942 124.064 52.0066 124.062C52.7398 124.023 53.4704 123.945 54.1957 123.83C55.7089 123.029 57.1368 122.074 58.4569 120.98C59.6239 120.38 59.6614 120.334 58.5007 120.18Z" fill="#B9BFCD"/>
<path fill-rule="evenodd" clip-rule="evenodd" d="M51.1517 125.29C48.4889 125.979 44.0447 124.678 40.2081 123.616C38.2544 123.081 35.495 123.111 34.7588 121.468C40.1852 122.709 46.5667 124.577 51.1517 125.29Z" fill="#B9BFCD"/>
<path fill-rule="evenodd" clip-rule="evenodd" d="M50.4131 126.206C49.9295 127.918 47.3604 127.18 45.2883 126.81C41.8067 126.184 36.6582 124.915 35.1952 123.161C35.1362 123.02 35.0926 122.892 35.2535 122.901C39.6212 124.139 45.6998 126.065 50.4131 126.206Z" fill="#B9BFCD"/>
<path fill-rule="evenodd" clip-rule="evenodd" d="M38.3022 125.489C40.129 126.468 43.4554 126.495 44.9548 127.682C42.8085 127.159 39.2005 127.096 38.3022 125.489Z" fill="#B9BFCD"/>
<path fill-rule="evenodd" clip-rule="evenodd" d="M68.6123 48.0411C65.1837 56.1821 60.8791 64.434 57.0531 72.5304C56.3391 72.0482 55.7893 71.3574 55.4777 70.551C56.367 66.0609 57.6433 60.4104 59.0648 55.7678C59.4064 55.6175 60.0568 55.9474 60.3069 55.6398C60.6242 54.9921 60.0822 54.9055 60.3362 54.298C63.5692 52.9639 65.8816 50.1634 68.6123 48.0411Z" fill="#FFA800"/>
<path fill-rule="evenodd" clip-rule="evenodd" d="M94.019 18.3765C94.752 15.1082 101.297 12.2483 104.414 12.4003C105.193 12.4404 105.814 13.5472 105.689 14.2293C105.444 15.604 104.189 15.383 103.07 15.6483C100.097 16.349 97.4672 19.2323 94.019 18.3765Z" fill="#FFA800"/>
<path fill-rule="evenodd" clip-rule="evenodd" d="M25.3154 12.81C22.4479 11.0201 20.8494 8.49792 18.9434 5.65084C18.3799 4.81227 17.4072 3.69857 17.5747 2.87107C17.6616 2.46636 17.897 2.10954 18.234 1.8719C18.571 1.63426 18.9847 1.53329 19.3925 1.58917C20.8192 1.84931 21.7404 4.36347 22.7515 5.75009C24.3597 7.94648 27.4368 10.3761 25.3154 12.81Z" fill="#FFA800"/>
<path fill-rule="evenodd" clip-rule="evenodd" d="M115.584 37.1671C116.645 37.3624 118.035 37.6234 117.77 39.0483C117.505 40.4731 116.204 40.1777 114.485 40.0063C113.016 39.8549 111.08 39.9257 108.674 39.9168C106.946 39.9073 103.571 40.0611 104.382 37.8582C104.926 36.36 112.782 36.7405 114.412 36.9011C114.808 36.9635 115.2 37.0524 115.584 37.1671Z" fill="#FFA800"/>
<path fill-rule="evenodd" clip-rule="evenodd" d="M20.9197 25.5512C18.726 28.1052 12.4483 23.473 9.99555 22.2966C8.59796 21.624 7.6841 21.5805 7.80955 20.4155C8.15817 17.2056 12.5329 20.431 14.0681 21.2168C16.7893 22.6091 19.4924 23.6783 20.9197 25.5512Z" fill="#FFA800"/>
<path fill-rule="evenodd" clip-rule="evenodd" d="M114.324 62.6549C113.662 63.7073 112.352 63.6924 110.521 63.1764C106.831 62.1473 103.262 60.6174 101.887 58.5924C102.97 56.105 106.263 58.4197 108.944 59.4291C111.749 60.4852 114.074 60.5391 114.324 62.6549Z" fill="#FFA800"/>
<path fill-rule="evenodd" clip-rule="evenodd" d="M13.369 42.8231C11.4317 44.3148 7.40964 44.6043 4.01047 44.8621C2.6458 44.9713 0.146618 45.4152 0.529027 43.3064C0.852003 41.5029 3.6615 41.9767 5.46614 41.8033C8.31443 41.5389 9.49499 40.5952 12.3151 41.3448C12.644 41.8568 13.2196 42.197 13.369 42.8231Z" fill="#FFA800"/>
<path fill-rule="evenodd" clip-rule="evenodd" d="M16.0121 63.176C14.2826 65.0934 12.1628 66.6133 9.79694 67.6323C8.56854 68.2645 6.69712 69.8257 5.07242 68.8738C4.7671 68.5965 4.56204 68.225 4.48948 67.8176C4.41692 67.4103 4.48097 66.9902 4.67157 66.6235C4.93082 66.154 6.36495 65.8965 7.04225 65.622C7.71954 65.3476 8.48187 64.8556 9.31007 64.4332C11.4848 63.2961 14.0785 61.179 16.0121 63.176Z" fill="#FFA800"/>
<path fill-rule="evenodd" clip-rule="evenodd" d="M97.9231 87.3299C94.6249 88.631 92.2136 83.5555 91.4662 81.2357C92.2355 79.4606 93.5874 80.9428 94.7792 81.5232C95.659 83.536 97.682 84.8517 97.9231 87.3299Z" fill="#FFA800"/>
</g>
<defs>
<clipPath id="clip0_707_3211">
<rect width="118" height="128" fill="white"/>
</clipPath>
</defs>
</svg>
