<svg width="24" height="24" viewBox="0 0 24 24" fill="none" xmlns="http://www.w3.org/2000/svg">
<path d="M15.5137 7.20834L19.0592 10.7539C19.1172 10.8119 19.1738 10.8712 19.2289 10.932C19.2839 10.9928 19.3375 11.0549 19.3896 11.1184C19.4416 11.1818 19.4921 11.2464 19.5409 11.3123C19.5899 11.3782 19.6371 11.4453 19.6827 11.5135C19.7282 11.5817 19.7721 11.651 19.8143 11.7214C19.8565 11.7918 19.8969 11.8631 19.9356 11.9355C19.9742 12.0078 20.0111 12.081 20.0462 12.1552C20.0813 12.2294 20.1145 12.3044 20.1459 12.3802C20.1773 12.456 20.2068 12.5325 20.2344 12.6098C20.2621 12.687 20.2878 12.7649 20.3117 12.8434C20.3355 12.9219 20.3573 13.0009 20.3773 13.0805C20.3972 13.1601 20.4152 13.2401 20.4311 13.3206C20.4472 13.401 20.4612 13.4819 20.4732 13.563C20.4853 13.6442 20.4953 13.7256 20.5033 13.8072C20.5114 13.8889 20.5174 13.9707 20.5215 14.0526C20.5255 14.1345 20.5275 14.2165 20.5275 14.2986C20.5275 14.3806 20.5255 14.4626 20.5215 14.5446C20.5174 14.6265 20.5114 14.7083 20.5033 14.7899C20.4953 14.8716 20.4853 14.953 20.4732 15.0341C20.4612 15.1153 20.4472 15.1961 20.4312 15.2766C20.4152 15.357 20.3972 15.4371 20.3773 15.5166C20.3573 15.5962 20.3355 15.6753 20.3117 15.7538C20.2878 15.8323 20.2621 15.9102 20.2344 15.9874C20.2068 16.0647 20.1773 16.1412 20.1459 16.217C20.1145 16.2928 20.0813 16.3678 20.0462 16.442C20.0111 16.5161 19.9742 16.5894 19.9356 16.6617C19.8969 16.734 19.8565 16.8054 19.8143 16.8758C19.7721 16.9462 19.7282 17.0154 19.6827 17.0837C19.6371 17.1519 19.5899 17.2189 19.5409 17.2848C19.4921 17.3507 19.4416 17.4154 19.3896 17.4788C19.3375 17.5422 19.2839 17.6043 19.2289 17.6651C19.1738 17.726 19.1172 17.7853 19.0592 17.8433L18.4512 18.4513C18.3833 18.5193 18.3137 18.5855 18.2425 18.65C18.1713 18.7146 18.0985 18.7774 18.0243 18.8383C17.95 18.8992 17.8743 18.9584 17.7971 19.0156C17.7199 19.0728 17.6413 19.1282 17.5614 19.1815C17.4815 19.2349 17.4004 19.2864 17.3179 19.3357C17.2355 19.3852 17.1519 19.4325 17.0672 19.4778C16.9824 19.5231 16.8966 19.5663 16.8097 19.6073C16.7229 19.6485 16.6351 19.6874 16.5463 19.7242C16.4575 19.7609 16.3679 19.7955 16.2774 19.8279C16.1869 19.8603 16.0957 19.8904 16.0037 19.9183C15.9117 19.9462 15.8192 19.9718 15.726 19.9952C15.6327 20.0185 15.539 20.0395 15.4448 20.0583C15.3505 20.077 15.2558 20.0935 15.1608 20.1076C15.0657 20.1217 14.9704 20.1334 14.8747 20.1429C14.7791 20.1523 14.6833 20.1593 14.5873 20.164C14.4913 20.1688 14.3953 20.1711 14.2992 20.1711C14.2031 20.1711 14.1071 20.1688 14.0111 20.1641C13.9151 20.1593 13.8193 20.1523 13.7237 20.1429C13.6281 20.1335 13.5327 20.1217 13.4376 20.1076C13.3426 20.0935 13.2479 20.077 13.1537 20.0583C13.0594 20.0395 12.9657 20.0185 12.8725 19.9952C12.7793 19.9718 12.6866 19.9462 12.5947 19.9183C12.5028 19.8904 12.4115 19.8603 12.321 19.8279C12.2306 19.7955 12.1409 19.7609 12.0522 19.7242C11.9634 19.6874 11.8756 19.6485 11.7887 19.6074C11.7018 19.5663 11.616 19.5231 11.5313 19.4778C11.4465 19.4325 11.3629 19.3852 11.2805 19.3357C11.1981 19.2863 11.1169 19.2349 11.037 19.1815C10.9571 19.1282 10.8786 19.0729 10.8014 19.0156C10.7242 18.9584 10.6484 18.8992 10.5742 18.8383C10.4999 18.7774 10.4271 18.7146 10.3559 18.6501C10.2847 18.5855 10.2152 18.5193 10.1472 18.4513L4.06838 12.3725C4.02308 12.3272 3.97892 12.2808 3.93589 12.2333C3.89287 12.1859 3.85104 12.1374 3.8104 12.0878C3.76976 12.0384 3.73036 11.9879 3.6922 11.9364C3.65404 11.885 3.61716 11.8326 3.58157 11.7793C3.54598 11.7261 3.51171 11.6719 3.47878 11.617C3.44585 11.562 3.41428 11.5063 3.38408 11.4499C3.35388 11.3933 3.32509 11.3361 3.2977 11.2782C3.27031 11.2203 3.24435 11.1617 3.21984 11.1026C3.19533 11.0434 3.17228 10.9836 3.15069 10.9233C3.12911 10.863 3.10902 10.8022 3.09043 10.7409C3.07183 10.6796 3.05475 10.6179 3.03919 10.5557C3.02362 10.4936 3.00959 10.4311 2.99709 10.3683C2.98459 10.3054 2.97364 10.2423 2.96424 10.179C2.95484 10.1156 2.947 10.052 2.94073 9.98825C2.93445 9.92452 2.92973 9.86064 2.92659 9.79666C2.92345 9.73268 2.92188 9.66864 2.92188 9.60461C2.92188 9.54052 2.92345 9.47649 2.92659 9.41251C2.92973 9.34852 2.93445 9.28469 2.94073 9.22091C2.94701 9.15719 2.95485 9.09361 2.96424 9.03024C2.97364 8.96687 2.98459 8.90376 2.99709 8.84095C3.00959 8.77809 3.02362 8.71564 3.03919 8.65349C3.05475 8.59135 3.07183 8.52961 3.09043 8.46834C3.10902 8.40701 3.12911 8.34619 3.15069 8.28589C3.17228 8.22558 3.19533 8.16583 3.21984 8.10665C3.24435 8.04747 3.27031 7.9889 3.2977 7.93099C3.32509 7.87308 3.35388 7.81589 3.38408 7.75937C3.41428 7.70289 3.44585 7.64713 3.47878 7.59218C3.51171 7.53724 3.54598 7.48316 3.58157 7.4299C3.61716 7.37664 3.65404 7.32425 3.6922 7.27278C3.73036 7.22136 3.76976 7.17086 3.8104 7.12132C3.85104 7.07184 3.89287 7.02333 3.93589 6.97584C3.97892 6.9284 4.02308 6.88199 4.06838 6.83669L4.06909 6.83598C4.11461 6.79048 4.16122 6.74606 4.20891 6.7028C4.25659 6.65955 4.3053 6.61748 4.35503 6.57663C4.40477 6.53572 4.45546 6.49605 4.50713 6.45765C4.55879 6.4192 4.61136 6.38207 4.66483 6.34623C4.71831 6.31033 4.77261 6.27581 4.82777 6.24262C4.88292 6.20937 4.93885 6.17751 4.99555 6.14703C5.05226 6.11649 5.10964 6.08743 5.16775 6.05971C5.22592 6.03203 5.28464 6.00573 5.34408 5.98086C5.40341 5.95605 5.46341 5.93266 5.52392 5.91075C5.58449 5.8888 5.64551 5.86837 5.70704 5.84943C5.76857 5.83043 5.83051 5.81302 5.89286 5.79709C5.95526 5.78115 6.01802 5.7667 6.08108 5.75383C6.14415 5.74092 6.20752 5.72958 6.27119 5.71977C6.33477 5.70997 6.3986 5.7017 6.46263 5.69501C6.52667 5.68832 6.59085 5.68316 6.65514 5.67959C6.71943 5.67601 6.78377 5.67402 6.84811 5.67356C6.9125 5.6731 6.9769 5.67423 7.04118 5.67693C7.10553 5.67959 7.16976 5.68383 7.2339 5.68965C7.29798 5.69547 7.36192 5.70282 7.42569 5.71176C7.48942 5.72069 7.55295 5.73116 7.61621 5.74316C7.67948 5.75516 7.74239 5.76869 7.805 5.78376C7.8676 5.79887 7.92975 5.81547 7.99153 5.83354C8.05332 5.85162 8.11465 5.87123 8.17547 5.89232C8.23633 5.91341 8.29659 5.93598 8.35633 5.95998C8.41608 5.98398 8.47521 6.00946 8.53368 6.03637C8.5922 6.06323 8.65 6.09152 8.70709 6.12124C8.76423 6.15096 8.82055 6.18206 8.87616 6.21448C8.93177 6.24696 8.98656 6.28071 9.04054 6.31584C9.09451 6.35097 9.14757 6.38738 9.19976 6.42507C9.25199 6.46275 9.30321 6.50172 9.35351 6.5419C9.40381 6.58209 9.45308 6.6235 9.50139 6.66609C9.5497 6.70868 9.59688 6.75239 9.64304 6.79727L15.5382 12.531C15.5839 12.5754 15.6273 12.6221 15.6685 12.6708C15.7095 12.7196 15.7481 12.7703 15.7842 12.8229C15.8203 12.8754 15.8536 12.9296 15.8843 12.9855C15.915 13.0415 15.9429 13.0987 15.9679 13.1574C15.9929 13.216 16.0149 13.2758 16.0341 13.3367C16.0532 13.3975 16.0692 13.4591 16.0822 13.5215C16.0952 13.584 16.105 13.6469 16.1118 13.7103C16.1185 13.7737 16.1221 13.8373 16.1225 13.9011C16.123 13.9648 16.1203 14.0285 16.1144 14.092C16.1085 14.1555 16.0996 14.2185 16.0874 14.2811C16.0753 14.3437 16.0601 14.4056 16.0419 14.4667C16.0237 14.5278 16.0024 14.5878 15.9783 14.6469C15.954 14.7058 15.927 14.7635 15.8971 14.8198C15.8672 14.8761 15.8345 14.9308 15.7992 14.9839C15.7639 15.037 15.726 15.0882 15.6856 15.1375C15.6452 15.1869 15.6024 15.234 15.5573 15.2792L15.5566 15.2798C15.5109 15.3255 15.4632 15.3688 15.4134 15.4098C15.3635 15.4509 15.3118 15.4894 15.2583 15.5254C15.2047 15.5613 15.1495 15.5946 15.0927 15.6253C15.0358 15.6559 14.9777 15.6838 14.9182 15.7087C14.8586 15.7337 14.7981 15.7558 14.7365 15.7749C14.6748 15.794 14.6123 15.8101 14.5491 15.8232C14.4859 15.8362 14.4222 15.8462 14.3581 15.8531C14.2938 15.86 14.2295 15.8637 14.1649 15.8644C14.1004 15.865 14.036 15.8625 13.9717 15.8569C13.9074 15.8513 13.8435 15.8426 13.78 15.8308C13.7166 15.819 13.6538 15.8041 13.5918 15.7862C13.5298 15.7683 13.4688 15.7474 13.4088 15.7236C13.3488 15.6998 13.2901 15.6731 13.2327 15.6436C13.1753 15.6141 13.1195 15.5819 13.0652 15.547C13.0109 15.5121 12.9585 15.4746 12.9078 15.4346C12.8572 15.3946 12.8086 15.3522 12.762 15.3075L7.02301 9.79058" stroke="#646A76" stroke-width="2" stroke-linecap="round"/>
</svg>
