<svg width="180" height="36" viewBox="0 0 180 36" fill="none" xmlns="http://www.w3.org/2000/svg">
<g clip-path="url(#clip0_707_3054)">
<path d="M32.7341 27.8573C30.1688 27.8573 28.261 27.2326 27.0106 25.9832C25.7731 24.7339 25.1543 22.8208 25.1543 20.2439V15.7149C25.1543 13.099 25.7731 11.1729 27.0106 9.93649C28.261 8.68711 30.1688 8.06242 32.7341 8.06242H35.9052C38.4834 8.06242 40.3912 8.68711 41.6287 9.93649C42.8662 11.1859 43.485 13.112 43.485 15.7149V20.2049C43.485 22.7947 42.8662 24.7209 41.6287 25.9832C40.3912 27.2326 38.4834 27.8573 35.9052 27.8573H32.7341ZM28.4028 20.2439C28.4028 21.9228 28.7057 23.068 29.3116 23.6797C29.9174 24.2784 31.0583 24.5777 32.7341 24.5777H35.9052C37.5939 24.5777 38.7347 24.2719 39.3277 23.6602C39.9336 23.0485 40.2365 21.8967 40.2365 20.2049V15.7149C40.2365 14.01 39.9336 12.8582 39.3277 12.2596C38.7347 11.6479 37.5939 11.342 35.9052 11.342H32.7341C31.6126 11.342 30.736 11.4722 30.1044 11.7325C29.4856 11.9798 29.0473 12.4222 28.7895 13.0599C28.5317 13.6846 28.4028 14.5696 28.4028 15.7149V20.2439Z" fill="#646A76"/>
<path d="M72.0557 8.06242C74.4921 8.06242 76.2388 8.64156 77.2958 9.79984C78.3657 10.9581 78.9007 12.8777 78.9007 15.5587V26.2175C78.9007 27.3107 78.3593 27.8573 77.2765 27.8573C76.1936 27.8573 75.6522 27.3107 75.6522 26.2175V15.5587C75.6522 14.0751 75.3686 13.0014 74.8014 12.3377C74.2471 11.6739 73.3319 11.342 72.0557 11.342H70.4701C69.0006 11.342 67.95 11.6739 67.3183 12.3377C66.6867 13.0014 66.3709 14.0751 66.3709 15.5587V26.2175C66.3709 27.3107 65.8295 27.8573 64.7466 27.8573C63.6638 27.8573 63.1224 27.3107 63.1224 26.2175V15.5587C63.1224 14.0751 62.8388 13.0014 62.2716 12.3377C61.7173 11.6739 60.802 11.342 59.5259 11.342H57.9403C56.4707 11.342 55.4201 11.6739 54.7885 12.3377C54.1568 13.0014 53.841 14.0751 53.841 15.5587V26.2175C53.841 27.3107 53.2996 27.8573 52.2168 27.8573C51.134 27.8573 50.5925 27.3107 50.5925 26.2175V9.70223C50.5925 8.60903 51.134 8.06242 52.2168 8.06242C53.2996 8.06242 53.841 8.60903 53.841 9.70223V10.6002C54.5242 9.70224 55.2719 9.05802 56.084 8.66759C56.909 8.26414 57.8887 8.06242 59.0231 8.06242H59.5259C61.1243 8.06242 62.3812 8.29017 63.2964 8.74568C64.2117 9.18817 64.9078 9.91047 65.3847 10.9126C66.0679 9.88444 66.7898 9.15563 67.5504 8.72616C68.3238 8.28367 69.2971 8.06242 70.4701 8.06242H72.0557Z" fill="#646A76"/>
<path d="M88.17 27.8573C87.0872 27.8573 86.5457 27.3107 86.5457 26.2175V9.70223C86.5457 8.60903 87.0872 8.06242 88.17 8.06242C89.2528 8.06242 89.7942 8.60903 89.7942 9.70223V10.3464C91.1607 8.82376 93.1716 8.06242 95.8271 8.06242H96.9099C99.4881 8.06242 101.396 8.68711 102.633 9.93649C103.871 11.1859 104.49 13.112 104.49 15.7149V26.2175C104.49 27.3107 103.948 27.8573 102.865 27.8573C101.783 27.8573 101.241 27.3107 101.241 26.2175V15.7149C101.241 14.01 100.932 12.8582 100.313 12.2596C99.7072 11.6479 98.5729 11.342 96.9099 11.342H95.8271C94.2802 11.342 92.9331 11.5243 91.7859 11.8887C90.6386 12.24 89.9747 12.7997 89.7942 13.5675V26.2175C89.7942 27.3107 89.2528 27.8573 88.17 27.8573Z" fill="#646A76"/>
<path d="M113.775 27.8573C112.692 27.8573 112.151 27.3107 112.151 26.2175V9.70223C112.151 8.60903 112.692 8.06242 113.775 8.06242C114.858 8.06242 115.4 8.60903 115.4 9.70223V26.2175C115.4 27.3107 114.858 27.8573 113.775 27.8573ZM113.234 4.86088C112.009 4.86088 111.397 4.23619 111.397 2.9868V1.83503C111.397 0.611676 112.009 0 113.234 0H114.355C115.528 0 116.115 0.611676 116.115 1.83503V2.9868C116.115 4.23619 115.528 4.86088 114.355 4.86088H113.234Z" fill="#646A76"/>
<path d="M129.476 27.8573C127.31 27.8573 125.699 27.3237 124.642 26.2566C123.585 25.1894 123.056 23.5626 123.056 21.3762C123.056 19.1897 123.578 17.5629 124.623 16.4958C125.68 15.4286 127.297 14.895 129.476 14.895H137.655C137.578 13.5285 137.223 12.5979 136.592 12.1034C135.96 11.5958 134.877 11.342 133.343 11.342H131.1C129.811 11.342 128.851 11.4332 128.219 11.6154C127.587 11.7845 127.143 12.0969 126.885 12.5524C126.653 13.099 126.414 13.4764 126.17 13.6846C125.925 13.8929 125.557 13.997 125.067 13.997C124.526 13.997 124.101 13.8473 123.791 13.548C123.482 13.2356 123.392 12.8257 123.52 12.3181C123.907 10.8475 124.713 9.77382 125.937 9.09707C127.175 8.4073 128.896 8.06242 131.1 8.06242H133.343C135.921 8.06242 137.829 8.68711 139.067 9.93649C140.304 11.1859 140.923 13.112 140.923 15.7149V26.2175C140.923 27.3107 140.382 27.8573 139.299 27.8573C138.216 27.8573 137.675 27.3107 137.675 26.2175V25.339C136.295 27.0179 134.284 27.8573 131.642 27.8573H129.476ZM129.476 24.5777H131.642C132.596 24.5777 133.491 24.4931 134.329 24.3239C135.167 24.1417 135.883 23.8164 136.476 23.3478C137.082 22.8793 137.481 22.2091 137.675 21.3371V18.1746H129.476C128.2 18.1746 127.349 18.3893 126.924 18.8188C126.511 19.2483 126.305 20.1007 126.305 21.3762C126.305 22.6646 126.511 23.5235 126.924 23.953C127.349 24.3695 128.2 24.5777 129.476 24.5777Z" fill="#646A76"/>
<path d="M13.806 24.4433C13.3549 25.2502 12.7103 25.4324 11.8724 24.9899L0.966809 18.8211C0.32227 18.4437 0 17.8841 0 17.1423C0 16.5306 0.32227 16.036 0.966809 15.6586L11.8724 9.52883C12.6845 9.09936 13.3291 9.28156 13.806 10.0754C14.2314 10.9084 14.0381 11.5591 13.2259 12.0276L2.9391 17.7669V16.6737L13.2646 22.5302C14.0638 23.0118 14.2443 23.6495 13.806 24.4433Z" fill="#646A76"/>
<path d="M151.874 36C151.255 36 150.798 35.8048 150.501 35.4144C150.205 35.024 150.134 34.5164 150.289 33.8917L158.216 2.81333C158.487 1.95438 159.016 1.5249 159.802 1.5249C160.421 1.5249 160.878 1.72663 161.175 2.13007C161.484 2.5205 161.542 3.02156 161.349 3.63323L153.46 34.7116C153.228 35.5706 152.699 36 151.874 36Z" fill="#646A76"/>
<path d="M166.193 24.4433C166.644 25.2502 167.289 25.4324 168.127 24.9899L179.032 18.821C179.677 18.4436 179.999 17.884 179.999 17.1422C179.999 16.5305 179.677 16.036 179.032 15.6585L168.127 9.52876C167.315 9.09928 166.67 9.28148 166.193 10.0754C165.768 10.9083 165.961 11.559 166.773 12.0275L177.06 17.7669V16.6737L166.735 22.5301C165.935 23.0117 165.755 23.6494 166.193 24.4433Z" fill="#646A76"/>
</g>
<defs>
<clipPath id="clip0_707_3054">
<rect width="180" height="36" fill="white"/>
</clipPath>
</defs>
</svg>
