<svg width="20" height="20" viewBox="0 0 20 20" fill="none" xmlns="http://www.w3.org/2000/svg">
<g clip-path="url(#clip0_770_2069)">
<mask id="mask0_770_2069" style="mask-type:luminance" maskUnits="userSpaceOnUse" x="0" y="0" width="20" height="20">
<path d="M20 0H0V20H20V0Z" fill="white"/>
</mask>
<g mask="url(#mask0_770_2069)">
<path d="M19.9999 9.37248C19.8794 7.4225 19.1909 5.55041 18.0193 3.987C16.8477 2.4236 15.2441 1.23723 13.4064 0.574143C11.5687 -0.0889373 9.57702 -0.199741 7.6771 0.255394C5.77715 0.710529 4.05191 1.71171 2.71409 3.1355C1.37626 4.55929 0.484331 6.34345 0.148249 8.26803C-0.187833 10.1926 0.0466276 12.1735 0.822727 13.9664C1.59883 15.7593 2.88264 17.286 4.51589 18.3581C6.14914 19.4302 8.06043 20.001 10.0141 20H15.8333C16.938 19.9989 17.9972 19.5596 18.7784 18.7784C19.5595 17.9972 19.9989 16.9381 19.9999 15.8333V9.37248ZM18.3333 15.8333C18.3333 16.4963 18.0699 17.1322 17.6011 17.6011C17.1322 18.0699 16.4964 18.3333 15.8333 18.3333H10.0141C8.83827 18.3328 7.67567 18.0844 6.60221 17.6044C5.52875 17.1244 4.56853 16.4235 3.78413 15.5475C2.99595 14.6719 2.40407 13.6379 2.04821 12.5148C1.69235 11.3917 1.58071 10.2056 1.7208 9.03582C1.942 7.19077 2.77095 5.47181 4.077 4.14992C5.38305 2.82803 7.09188 1.97841 8.9341 1.73498C9.29352 1.68994 9.65527 1.66712 10.0174 1.66665C11.9595 1.66135 13.8414 2.3399 15.3333 3.58332C16.2046 4.30743 16.9197 5.20094 17.4354 6.20967C17.9511 7.2184 18.2565 8.32135 18.3333 9.45165V15.8333Z" fill="white" fill-opacity="0.2"/>
</g>
</g>
<defs>
<clipPath id="clip0_770_2069">
<rect width="20" height="20" fill="white"/>
</clipPath>
</defs>
</svg>
