<svg width="101" height="40" viewBox="0 0 101 40" fill="none" xmlns="http://www.w3.org/2000/svg">
<rect x="3.20312" width="97.5947" height="29" rx="5" transform="rotate(6.34087 3.20312 0)" fill="#55B077"/>
<path d="M20.9475 17.5146C20.6914 17.4536 20.2775 17.3913 19.7055 17.3274L17.907 17.3267L17.8284 18.9522C17.819 19.1043 17.8306 19.3282 17.8632 19.6241C17.9148 19.9061 17.9292 20.1134 17.9065 20.2461C17.844 20.611 17.5934 20.8584 17.1549 20.9881C16.8029 21.0985 16.4246 21.1191 16.0202 21.0498C15.4701 20.9556 15.1031 20.7647 14.9192 20.4771C14.7543 20.1756 14.6812 19.7277 14.6997 19.1334C14.7211 18.5224 14.7454 17.8948 14.7724 17.2507L13.6764 17.5239C13.3625 17.6067 13.0627 17.6066 12.7772 17.5235C12.4269 17.4293 12.1631 17.1707 11.9858 16.7477C11.8085 16.3246 11.7582 15.8892 11.8349 15.4413C11.8832 15.1593 12.0043 14.8898 12.1982 14.6328C12.395 14.3592 12.6228 14.2446 12.8817 14.2889C12.9464 14.3 13.0701 14.3553 13.2529 14.4549C13.4357 14.5546 13.5932 14.6071 13.7255 14.6127L14.973 14.6216L15.0798 12.5398C15.0807 12.4375 15.0644 12.2896 15.0309 12.0961C14.9975 11.9025 14.9893 11.756 15.0063 11.6565C15.0575 11.3579 15.398 11.1687 16.0279 11.0888C16.4874 11.0309 16.9114 11.0353 17.2997 11.1018C18.2542 11.2653 18.6932 11.571 18.6164 12.0188C18.6022 12.1018 18.5281 12.2427 18.3941 12.4417C18.2791 12.6269 18.2183 12.7872 18.2118 12.9227L18.0505 14.739L19.1524 14.7229C19.3037 14.7147 19.5497 14.6885 19.8903 14.6444C20.1824 14.592 20.4094 14.5797 20.5712 14.6074C20.9595 14.6739 21.2746 14.9242 21.5167 15.3584C21.7749 15.7953 21.8685 16.2211 21.7975 16.6358C21.7066 17.1666 21.4232 17.4595 20.9475 17.5146Z" fill="white"/>
<path d="M40.5424 12.5644L39.2572 24.1295L36.8403 23.861L37.9045 14.2835L33.2288 13.764L32.1645 23.3414L29.7476 23.0728L31.0327 11.5076L40.5424 12.5644ZM45.4403 24.9881C44.5631 24.8906 43.8252 24.62 43.2266 24.1762C42.6322 23.729 42.1991 23.1511 41.9272 22.4425C41.6557 21.7301 41.5694 20.9297 41.6681 20.0412C41.7676 19.1452 42.0278 18.3814 42.4487 17.7498C42.8699 17.1144 43.4193 16.6457 44.097 16.3437C44.7788 16.0383 45.5583 15.9344 46.4355 16.0319C47.3127 16.1294 48.0485 16.4017 48.6429 16.8489C49.2415 17.2927 49.6765 17.8708 49.948 18.5831C50.2198 19.2918 50.306 20.0941 50.2064 20.9901C50.1077 21.8785 49.8477 22.6405 49.4265 23.2759C49.0057 23.9075 48.4543 24.376 47.7725 24.6813C47.0949 24.9833 46.3174 25.0856 45.4403 24.9881ZM45.6586 23.1258C46.0577 23.1702 46.4034 23.0943 46.6958 22.8981C46.9886 22.6981 47.2248 22.4081 47.4042 22.0278C47.5874 21.648 47.7071 21.2059 47.7631 20.7014C47.8192 20.1969 47.7995 19.7393 47.7042 19.3285C47.6126 18.9182 47.4459 18.5833 47.2041 18.324C46.9623 18.0646 46.6419 17.9128 46.2429 17.8684C45.84 17.8237 45.4885 17.9008 45.1881 18.1C44.8915 18.2995 44.6516 18.5891 44.4684 18.969C44.289 19.3492 44.1712 19.7915 44.1151 20.296C44.0591 20.8005 44.0769 21.2579 44.1685 21.6683C44.2638 22.079 44.4343 22.4143 44.6798 22.6741C44.9295 22.9305 45.2558 23.0811 45.6586 23.1258ZM50.9311 28.7196L52.2564 16.7931L54.6281 17.0566L54.4662 18.5136L54.5735 18.5255C54.7049 18.3038 54.8837 18.0835 55.11 17.8648C55.3405 17.6427 55.6266 17.4687 55.9684 17.3427C56.3143 17.2135 56.7301 17.1759 57.2157 17.2298C57.8482 17.3001 58.4133 17.5306 58.9111 17.9213C59.4093 18.3082 59.7816 18.8508 60.028 19.5489C60.2747 20.2433 60.3429 21.0874 60.2325 22.0813C60.125 23.0488 59.8779 23.8484 59.4914 24.4801C59.1091 25.1083 58.6316 25.5641 58.0589 25.8473C57.4905 26.1271 56.8768 26.2304 56.218 26.1572C55.7512 26.1053 55.3626 25.984 55.0522 25.7933C54.7456 25.6029 54.5017 25.3796 54.3206 25.1231C54.1399 24.8629 54.0083 24.6063 53.9259 24.3532L53.8525 24.3451L53.3367 28.987L50.9311 28.7196ZM54.1293 21.3917C54.0719 21.9074 54.0935 22.3653 54.1939 22.7652C54.2943 23.1651 54.4681 23.4874 54.7153 23.7321C54.9629 23.973 55.2806 24.115 55.6684 24.1581C56.0599 24.2016 56.4031 24.1312 56.698 23.9467C56.9933 23.7585 57.232 23.4801 57.414 23.1116C57.6001 22.7397 57.7212 22.3015 57.7773 21.797C57.8329 21.2963 57.8122 20.8481 57.7152 20.4524C57.6181 20.0567 57.446 19.7365 57.1988 19.4918C56.9516 19.2471 56.6303 19.1028 56.235 19.0588C55.8435 19.0153 55.5007 19.082 55.2066 19.259C54.9163 19.4363 54.6785 19.7072 54.4932 20.0715C54.3079 20.4359 54.1866 20.8759 54.1293 21.3917ZM61.2692 19.7097L61.4794 17.8179L69.3401 18.6915L69.1299 20.5832L66.3346 20.2726L65.581 27.0547L63.2883 26.7999L64.0419 20.0178L61.2692 19.7097ZM71.9792 27.9315C71.4258 27.87 70.9433 27.7192 70.5317 27.4791C70.1205 27.2352 69.81 26.9091 69.6 26.5009C69.3942 26.0893 69.3231 25.5973 69.3867 25.0251C69.4402 24.5432 69.5736 24.1484 69.787 23.8405C70.0003 23.5326 70.2705 23.2959 70.5977 23.1302C70.9248 22.9646 71.2879 22.8525 71.6869 22.7939C72.0897 22.7358 72.508 22.7099 72.9418 22.7161C73.4522 22.7195 73.8642 22.7157 74.1779 22.7049C74.492 22.6902 74.724 22.6436 74.8737 22.5649C75.0235 22.4863 75.1086 22.3547 75.1291 22.1703L75.1329 22.1364C75.1726 21.7787 75.0904 21.4895 74.8863 21.2686C74.6859 21.0482 74.3806 20.9152 73.9702 20.8696C73.5373 20.8214 73.1822 20.8792 72.9048 21.0427C72.6279 21.2025 72.4321 21.4209 72.3175 21.6978L70.1127 21.2698C70.2842 20.7553 70.5569 20.3245 70.9309 19.9773C71.3053 19.6263 71.7656 19.3764 72.3119 19.2275C72.8624 19.0752 73.484 19.0376 74.1767 19.1146C74.6586 19.1681 75.1135 19.2758 75.5414 19.4377C75.9731 19.6 76.347 19.8188 76.6633 20.0941C76.9833 20.3697 77.2223 20.705 77.3804 21.0999C77.539 21.491 77.5896 21.9444 77.5323 22.4602L76.8822 28.3105L74.6007 28.057L74.7344 26.8542L74.6666 26.8467C74.4972 27.1022 74.2843 27.3206 74.0279 27.5017C73.7719 27.6791 73.4736 27.8079 73.1331 27.8882C72.7931 27.9648 72.4084 27.9792 71.9792 27.9315ZM72.8527 26.3478C73.2066 26.3871 73.5268 26.3522 73.8133 26.243C74.1003 26.1301 74.3343 25.9617 74.5154 25.738C74.6966 25.5142 74.8041 25.2498 74.838 24.9449L74.9402 24.0244C74.8595 24.065 74.751 24.0986 74.6146 24.1254C74.4824 24.1488 74.3335 24.1685 74.1678 24.1844C74.0026 24.1965 73.8376 24.2068 73.6728 24.2151C73.5084 24.2197 73.3593 24.2241 73.2254 24.2283C72.9385 24.2383 72.6845 24.2768 72.4637 24.3437C72.2428 24.4107 72.0655 24.5148 71.9316 24.6562C71.7982 24.7938 71.7189 24.9756 71.6938 25.2015C71.6574 25.529 71.7482 25.7925 71.9661 25.992C72.1882 26.1882 72.4837 26.3068 72.8527 26.3478ZM78.2403 28.4615L78.4411 26.5515L78.7291 26.5835C78.9324 26.6061 79.1129 26.5766 79.2706 26.495C79.4325 26.4101 79.5749 26.2602 79.6979 26.0452C79.8209 25.8302 79.9313 25.5394 80.0292 25.173C80.1275 24.8028 80.2166 24.3439 80.2965 23.7964L80.8644 19.9721L87.4601 20.705L86.4963 29.3789L84.2036 29.1241L84.9572 22.342L82.817 22.1042L82.3871 24.7376C82.2725 25.4604 82.1146 26.0755 81.9134 26.5829C81.716 27.0907 81.4744 27.4984 81.1887 27.8058C80.9034 28.1095 80.5769 28.3209 80.2092 28.4401C79.8415 28.5594 79.4262 28.5932 78.9631 28.5418L78.2403 28.4615Z" fill="white"/>
</svg>
