<svg width="153" height="96" viewBox="0 0 153 96" fill="none" xmlns="http://www.w3.org/2000/svg">
<g clip-path="url(#clip0_707_3518)">
<rect y="48.9199" width="144.973" height="49" rx="10" transform="rotate(-19.7211 0 48.9199)" fill="#55B077"/>
<path d="M38.2126 62.9564C37.7771 63.0544 37.0997 63.2679 36.1805 63.5969L33.4392 64.9361L34.5309 67.472C34.6299 67.7107 34.8145 68.0433 35.0847 68.4698C35.3735 68.8611 35.5501 69.1663 35.6143 69.3855C35.791 69.9882 35.5935 70.5518 35.0219 71.0764C34.5678 71.507 34.0067 71.8203 33.3387 72.0162C32.4302 72.2825 31.7286 72.2651 31.2341 71.9639C30.7582 71.6274 30.3129 70.9994 29.8981 70.0797C29.4754 69.1327 29.0446 68.1583 28.6058 67.1565L27.1392 68.3897C26.7225 68.7499 26.2656 68.9731 25.7685 69.0594C25.1646 69.1769 24.5699 68.9794 23.9843 68.4669C23.3988 67.9543 22.9976 67.3282 22.7807 66.5886C22.6442 66.1229 22.6279 65.6219 22.7318 65.0857C22.8277 64.5221 23.0895 64.1776 23.517 64.0523C23.6239 64.0209 23.8537 64.0131 24.2065 64.0286C24.5593 64.0442 24.8385 64.0069 25.0443 63.9169L26.952 63.0005L25.5632 59.7486C25.4883 59.592 25.3532 59.3788 25.158 59.1088C24.9628 58.8388 24.841 58.6216 24.7929 58.4572C24.6483 57.9641 25.0262 57.422 25.9265 56.8307C26.5837 56.4001 27.233 56.0907 27.8743 55.9027C29.4508 55.4404 30.3475 55.5791 30.5644 56.3188C30.6046 56.4557 30.5967 56.7258 30.5408 57.1289C30.5035 57.4968 30.5304 57.7864 30.6214 57.9978L31.7293 60.8858L33.3966 60.04C33.621 59.9147 33.9763 59.6915 34.4625 59.3705C34.8686 59.0729 35.2052 58.885 35.4725 58.8066C36.1138 58.6186 36.7806 58.7652 37.4731 59.2464C38.1922 59.7198 38.6522 60.2989 38.853 60.9837C39.11 61.8604 38.8966 62.5179 38.2126 62.9564Z" fill="white"/>
<path d="M60.3476 43.8013L66.2375 60.232L63.7665 61.1178L58.6358 46.8051L50.9018 49.5775L56.0325 63.8902L53.5614 64.776L47.6715 48.3452L60.3476 43.8013ZM75.1157 57.3302C73.9604 57.7443 72.8573 57.841 71.8064 57.6201C70.7554 57.3993 69.8213 56.8982 69.004 56.1168C68.1867 55.3354 67.5499 54.3082 67.0936 53.0353C66.6354 51.7569 66.4727 50.5538 66.6055 49.4257C66.7383 48.2977 67.1404 47.3146 67.8117 46.4764C68.483 45.6382 69.3963 45.0121 70.5516 44.5979C71.7069 44.1838 72.81 44.0871 73.8609 44.308C74.9119 44.5288 75.8469 45.0326 76.6662 45.8193C77.4854 46.6061 78.1241 47.6386 78.5823 48.9169C79.0386 50.1899 79.1994 51.3877 79.0647 52.5104C78.9299 53.6331 78.5269 54.6135 77.8556 55.4517C77.1843 56.2899 76.271 56.916 75.1157 57.3302ZM74.4019 55.3136C75.1507 55.0451 75.7002 54.6248 76.0503 54.0527C76.4005 53.4805 76.5754 52.8233 76.5749 52.081C76.5798 51.3369 76.4403 50.569 76.1565 49.7774C75.8747 48.9912 75.4955 48.3123 75.019 47.7407C74.5459 47.1618 73.9915 46.76 73.3556 46.5353C72.7197 46.3105 72.0274 46.3323 71.2786 46.6008C70.5245 46.8711 69.9706 47.296 69.617 47.8754C69.2687 48.453 69.0931 49.1165 69.0901 49.866C69.0906 50.6082 69.2318 51.3725 69.5136 52.1587C69.7974 52.9503 70.1749 53.6328 70.646 54.2063C71.1225 54.7779 71.6778 55.1734 72.3117 55.3928C72.951 55.6103 73.6477 55.5839 74.4019 55.3136ZM85.1051 58.6836L79.0311 41.7394L81.3738 40.8996L82.0899 42.8973L82.2904 42.8254C82.3375 42.5188 82.4316 42.1501 82.5729 41.7192C82.7142 41.2883 82.9725 40.8637 83.3477 40.4455C83.721 40.022 84.2901 39.6731 85.0549 39.399C86.0497 39.0424 87.0277 38.9755 87.9888 39.1983C88.9499 39.4212 89.8221 39.9264 90.6054 40.7139C91.3941 41.4996 92.0271 42.5583 92.5045 43.8901C92.9819 45.2219 93.1693 46.4433 93.0666 47.5545C92.962 48.6604 92.614 49.609 92.0225 50.4005C91.4291 51.1866 90.635 51.758 89.6402 52.1146C88.8914 52.383 88.2339 52.4768 87.6678 52.3961C87.107 52.3134 86.6325 52.1515 86.2443 51.9105C85.8561 51.6694 85.5428 51.4437 85.3044 51.2333L85.16 51.2851L87.5039 57.8237L85.1051 58.6836ZM83.5905 47.0583C83.9011 47.9247 84.299 48.6392 84.7843 49.2016C85.2696 49.764 85.8164 50.1444 86.4247 50.3428C87.0311 50.5359 87.6793 50.5088 88.3693 50.2614C89.086 50.0045 89.617 49.5999 89.9622 49.0476C90.3055 48.49 90.4823 47.8381 90.4925 47.092C90.5081 46.344 90.3682 45.5582 90.073 44.7345C89.7815 43.9215 89.3968 43.2356 88.9188 42.6766C88.4461 42.1157 87.8993 41.7353 87.2784 41.5354C86.6628 41.3335 85.994 41.362 85.2719 41.6208C84.5766 41.8701 84.0525 42.2602 83.6996 42.7911C83.352 43.3201 83.1703 43.9496 83.1543 44.6796C83.1383 45.4096 83.2837 46.2025 83.5905 47.0583ZM92.2326 39.343L91.4906 37.2731L101.888 33.5459L102.63 35.6158L98.6107 37.0566L102.286 47.3098L99.9435 48.1496L96.268 37.8964L92.2326 39.343ZM111.953 44.1523C111.172 44.4322 110.415 44.5409 109.68 44.4783C108.943 44.4104 108.291 44.1644 107.722 43.7405C107.159 43.3146 106.733 42.6979 106.443 41.8902C106.194 41.1949 106.123 40.5747 106.229 40.0295C106.335 39.4844 106.569 38.9993 106.93 38.5743C107.29 38.1492 107.728 37.7692 108.241 37.4341C108.755 37.0991 109.291 36.7923 109.849 36.5138C110.556 36.1637 111.13 35.8794 111.571 35.661C112.01 35.4373 112.311 35.2239 112.473 35.0207C112.636 34.8176 112.665 34.5716 112.562 34.2828L112.542 34.2266C112.291 33.526 111.898 33.054 111.364 32.8108C110.836 32.5657 110.184 32.5821 109.408 32.8601C108.601 33.1496 108.028 33.557 107.691 34.0821C107.358 34.6 107.181 35.1072 107.16 35.6037L104.721 35.8984C104.72 35.0537 104.894 34.3094 105.242 33.6653C105.594 33.014 106.07 32.4633 106.669 32.0131C107.266 31.5576 107.937 31.1966 108.68 30.9301C109.172 30.7537 109.715 30.6256 110.308 30.5458C110.904 30.4587 111.498 30.4813 112.089 30.6136C112.685 30.744 113.239 31.0371 113.753 31.4929C114.264 31.9432 114.681 32.6177 115.003 33.5163L117.937 41.6996L115.594 42.5393L114.99 40.8546L114.894 40.8891C114.85 41.2549 114.727 41.6432 114.524 42.0539C114.321 42.4646 114.012 42.8561 113.596 43.2285C113.18 43.6009 112.632 43.9088 111.953 44.1523ZM111.784 42.0399C112.448 41.8021 112.968 41.4679 113.344 41.0371C113.726 40.6044 113.965 40.1326 114.059 39.6219C114.157 39.1039 114.119 38.6015 113.945 38.1148L113.375 36.5263C113.32 36.6426 113.183 36.7822 112.964 36.9453C112.748 37.1011 112.495 37.2614 112.204 37.426C111.911 37.5854 111.625 37.7392 111.346 37.8874C111.065 38.0303 110.831 38.1506 110.643 38.2483C110.198 38.4739 109.809 38.7253 109.473 39.0024C109.143 39.2776 108.91 39.5874 108.774 39.932C108.642 40.2692 108.652 40.6518 108.806 41.0797C109.018 41.6734 109.399 42.044 109.947 42.1917C110.493 42.334 111.105 42.2834 111.784 42.0399ZM120.161 40.9022L119.408 38.8272L119.849 38.669C120.192 38.5463 120.452 38.3715 120.63 38.1447C120.812 37.9106 120.914 37.5901 120.938 37.1835C120.961 36.7768 120.901 36.2488 120.759 35.5996C120.615 34.9451 120.392 34.1378 120.09 33.1777L118.351 27.6445L126.952 24.5615L131.369 36.8846L129.018 37.7272L125.343 27.474L121.315 28.9177L122.624 33.1747C122.94 34.2082 123.154 35.1334 123.266 35.9504C123.383 36.7655 123.383 37.4808 123.266 38.0963C123.146 38.7064 122.896 39.2215 122.516 39.6416C122.133 40.0564 121.605 40.3846 120.931 40.6261L120.161 40.9022Z" fill="white"/>
</g>
<defs>
<clipPath id="clip0_707_3518">
<rect y="48.9199" width="144.973" height="49" rx="10" transform="rotate(-19.7211 0 48.9199)" fill="white"/>
</clipPath>
</defs>
</svg>
