<svg width="110" height="53" viewBox="0 0 110 53" fill="none" xmlns="http://www.w3.org/2000/svg">
<g clip-path="url(#clip0_769_1887)">
<path d="M83.122 29.509L83.122 23.4909L78.3385 23.4909C78.0317 21.6415 77.4412 19.8873 76.6165 18.2711L80.4631 15.4461L76.8771 10.6007L73.0239 13.4291C71.7802 12.2334 70.3682 11.2085 68.8243 10.3971L70.3188 5.87697L64.5786 3.99469L63.0841 8.51808C62.1835 8.38011 61.2631 8.31113 60.3229 8.31113C59.3827 8.31113 58.5118 8.37683 57.6376 8.50822L56.1629 3.97498L50.4128 5.83098L51.8875 10.3642C50.3238 11.1756 48.892 12.2071 47.6351 13.4192L43.7819 10.5843L40.1894 15.4264L44.036 18.258C43.2079 19.8775 42.6174 21.6349 42.3073 23.4909L37.5205 23.4909L37.5205 29.509L42.3073 29.509C42.6141 31.3584 43.2046 33.1093 44.0294 34.7255L40.1795 37.5539L43.7654 42.3992L47.6186 39.5676C48.8623 40.7666 50.2743 41.7882 51.8182 42.5996L50.3238 47.1263L56.064 49.0053L57.5584 44.4819C58.459 44.6165 59.3827 44.6888 60.3229 44.6888C61.2631 44.6888 62.1307 44.6231 63.005 44.4917L64.4796 49.025L70.2297 47.169L68.7551 42.639C70.3188 41.8243 71.7538 40.7928 73.0107 39.5807L76.8606 42.4156L80.4532 37.5736L76.6099 34.7452C77.4379 33.1257 78.0284 31.365 78.3385 29.509L83.122 29.509ZM71.4503 33.2407C70.6981 34.4496 69.7777 35.5008 68.6957 36.3943C67.6103 37.2845 66.3666 37.9908 64.9645 38.5098C63.5592 39.0288 62.0483 39.2883 60.4285 39.2883C58.6075 39.2883 56.9118 38.9566 55.3382 38.293C53.7646 37.6327 52.412 36.7162 51.2739 35.55C50.139 34.3839 49.2417 33.0239 48.5819 31.4668C47.9188 29.913 47.5889 28.2443 47.5889 26.4573C47.5889 24.6702 47.9122 23.0442 48.5588 21.4904C49.2054 19.9333 50.0961 18.5799 51.231 17.4269C52.3691 16.2772 53.7085 15.3705 55.2524 14.707C56.7963 14.0434 58.4623 13.7116 60.2569 13.7116C61.847 13.7116 63.3514 13.9645 64.7699 14.4704C66.1852 14.973 67.452 15.6662 68.5637 16.5432C69.6788 17.4203 70.619 18.4814 71.3843 19.7165C72.1497 20.955 72.694 22.3084 73.0107 23.78L65.7233 23.78C65.5188 23.376 65.2747 22.9719 64.9843 22.5679C64.694 22.1671 64.3476 21.8058 63.9452 21.4904C63.5394 21.1718 63.0545 20.9122 62.4903 20.7119C61.9262 20.5115 61.2697 20.4096 60.5176 20.4096C59.6499 20.3801 58.8681 20.518 58.1753 20.8203C57.4792 21.1225 56.8788 21.5462 56.3741 22.0948C55.866 22.6401 55.4767 23.2971 55.2029 24.0592C54.9258 24.8214 54.7906 25.636 54.7906 26.5C54.7906 27.3639 54.9258 28.172 55.2029 28.9177C55.4767 29.67 55.866 30.3171 56.3741 30.8624C56.8788 31.411 57.4792 31.8347 58.1753 32.137C58.8681 32.4392 59.6499 32.5903 60.5176 32.5903C61.2697 32.5903 61.9262 32.4917 62.4903 32.2881C63.0545 32.0877 63.5394 31.8347 63.9452 31.5325C64.3476 31.2303 64.694 30.892 64.9843 30.5175C65.2747 30.143 65.5188 29.7685 65.7233 29.394L73.0536 29.394C72.7369 30.7474 72.2025 32.0286 71.4503 33.2407Z" fill="#D64941"/>
<path d="M6.79688 13.4358H15.2772L20.4073 30.4313H20.4771L25.5373 13.4358H34.0526V39.2606H27.9802L28.1896 19.9269L28.1198 19.8571L22.6059 39.2606H18.2436L12.7296 19.8571L12.6598 19.9269L12.8692 39.2606H6.79688V13.4358Z" fill="#1E1E20"/>
<path d="M90.3491 19.2289H85.2539V13.4358H102.005V19.2289H96.9449V39.2606H90.3491V19.2289Z" fill="#1E1E20"/>
</g>
<defs>
<clipPath id="clip0_769_1887">
<rect width="53" height="110" fill="white" transform="translate(110) rotate(90)"/>
</clipPath>
</defs>
</svg>
