<svg width="196" height="95" viewBox="0 0 196 95" fill="none" xmlns="http://www.w3.org/2000/svg">
<g clip-path="url(#clip0_707_3293)">
<path d="M148.109 52.8036V42.0349H139.586C139.039 38.7255 137.987 35.5865 136.517 32.6945L143.371 27.6393L136.982 18.969L130.116 24.0301C127.9 21.8905 125.384 20.0565 122.633 18.6046L125.296 10.5162L115.068 7.14806L112.405 15.2423C110.8 14.9954 109.16 14.8719 107.485 14.8719C105.81 14.8719 104.258 14.9895 102.7 15.2246L100.073 7.11279L89.8273 10.4339L92.4548 18.5458C89.6685 19.9977 87.1174 21.8434 84.8779 24.0125L78.0122 18.9396L71.6109 27.604L78.4648 32.671C76.9894 35.5689 75.9372 38.7137 75.3847 42.0349H66.8555V52.8036H75.3847C75.9313 56.113 76.9835 59.2461 78.453 62.1381L71.5933 67.1992L77.9828 75.8695L84.8485 70.8025C87.0645 72.948 89.5804 74.7761 92.3314 76.228L89.6686 84.3281L99.8965 87.6904L102.559 79.5962C104.164 79.8372 105.81 79.9665 107.485 79.9665C109.16 79.9665 110.706 79.849 112.264 79.6138L114.892 87.7257L125.137 84.4045L122.51 76.2986C125.296 74.8408 127.853 72.995 130.093 70.826L136.952 75.8989L143.354 67.2345L136.506 62.1734C137.981 59.2755 139.033 56.1248 139.586 52.8036H148.109ZM127.312 59.4812C125.972 61.6444 124.332 63.5254 122.404 65.1242C120.47 66.7172 118.254 67.981 115.756 68.9097C113.252 69.8385 110.559 70.3029 107.673 70.3029C104.429 70.3029 101.407 69.7092 98.6033 68.5218C95.7995 67.3403 93.3894 65.7003 91.3615 63.6135C89.3394 61.5268 87.7405 59.0932 86.5649 56.307C85.3834 53.5266 84.7956 50.5405 84.7956 47.3428C84.7956 44.1451 85.3716 41.2354 86.5237 38.4551C87.6759 35.6688 89.263 33.247 91.285 31.1838C93.313 29.1264 95.6995 27.5041 98.4505 26.3167C101.201 25.1293 104.17 24.5356 107.368 24.5356C110.201 24.5356 112.881 24.9882 115.409 25.8935C117.931 26.7928 120.188 28.0331 122.169 29.6026C124.156 31.172 125.831 33.0707 127.195 35.2809C128.558 37.4969 129.528 39.9187 130.093 42.5521H117.108C116.743 41.8291 116.308 41.1061 115.791 40.3831C115.274 39.666 114.657 39.0194 113.939 38.4551C113.216 37.8849 112.352 37.4205 111.347 37.0619C110.342 36.7034 109.172 36.5212 107.832 36.5212C106.286 36.4683 104.893 36.7151 103.659 37.2559C102.418 37.7967 101.348 38.555 100.449 39.5366C99.5438 40.5124 98.8502 41.688 98.3623 43.0518C97.8686 44.4155 97.6276 45.8733 97.6276 47.4192C97.6276 48.9652 97.8686 50.4112 98.3623 51.7456C98.8502 53.0917 99.5438 54.2496 100.449 55.2254C101.348 56.2071 102.418 56.9653 103.659 57.5061C104.893 58.0469 106.286 58.3173 107.832 58.3173C109.172 58.3173 110.342 58.141 111.347 57.7765C112.352 57.418 113.216 56.9653 113.939 56.4246C114.657 55.8838 115.274 55.2783 115.791 54.6082C116.308 53.9381 116.743 53.268 117.108 52.5979H130.169C129.605 55.0197 128.652 57.3122 127.312 59.4812Z" fill="#D64941"/>
<path d="M10.4258 24.1597H25.6748L34.8995 54.7205H35.025L44.1242 24.1597H59.436V70.597H48.517L48.8935 35.8318L48.768 35.7063L38.853 70.597H31.0088L21.0938 35.7063L20.9683 35.8318L21.3448 70.597H10.4258V24.1597Z" fill="#1E1E20"/>
<path d="M160.663 34.5767H151.501V24.1597H181.622V34.5767H172.523V70.597H160.663V34.5767Z" fill="#1E1E20"/>
</g>
<defs>
<clipPath id="clip0_707_3293">
<rect width="94.8387" height="196" fill="white" transform="translate(196) rotate(90)"/>
</clipPath>
</defs>
</svg>
