<svg width="127" height="116" viewBox="0 0 127 116" fill="none" xmlns="http://www.w3.org/2000/svg">
<g clip-path="url(#clip0_707_3066)">
<path d="M121.937 38.7823C116.958 12.3725 74.4952 -2.03576 43.0885 3.41997C37.1785 4.44609 10.2739 9.1209 2.32816 28.3692C-8.07715 53.5783 17.7392 94.8055 52.8589 99.5309C54.4156 99.7406 55.97 99.8765 57.5221 99.9387C58.0893 107.217 50.2803 113.494 50.2803 113.494C67.742 115.532 78.5872 103.722 84.3456 94.327C108.18 83.341 125.654 58.4997 121.937 38.7823Z" fill="#FF3D00"/>
<g clip-path="url(#clip1_707_3066)">
<path d="M32.8153 43.7613L42.1729 44.5169L41.0088 48.6349L24.1524 47.2738L25.0901 44.0006L35.8801 36.8929C38.5512 35.0947 39.4122 33.9865 39.5309 32.5261C39.6495 31.0658 38.6139 29.9932 36.4548 29.8189C35.5424 29.759 34.628 29.9015 33.7775 30.2362C32.927 30.571 32.1615 31.0896 31.5362 31.7548L28.2726 28.9695C30.2628 26.6713 33.7224 25.3234 37.5613 25.6333C42.2693 26.0135 45.1476 28.7677 44.8668 32.2243C44.6532 34.8547 43.2679 36.9769 39.1079 39.6753L32.8153 43.7613Z" fill="white"/>
<path d="M64.5049 45.8434L60.8496 45.5482L59.5485 50.1317L54.5225 49.7258L55.855 45.145L43.8634 44.1767L44.8116 40.774L59.0625 27.7514L64.6888 28.2056L51.3933 40.5682L57.2435 41.0406L58.4096 36.9542L63.2116 37.342L62.0455 41.4283L65.7053 41.7238L64.5049 45.8434Z" fill="white"/>
<path d="M80.9895 24.9911L85.6347 25.3662L66.8627 53.9142L62.2309 53.5402L80.9895 24.9911Z" fill="white"/>
<path d="M101.838 31.2051L100.9 34.4828L87.4746 52.3865L81.7498 51.9242L94.6267 34.8349L87.4102 34.2522L86.3817 37.8102L81.8037 37.4406L84.0008 29.7649L101.838 31.2051Z" fill="white"/>
<path d="M20.6465 64.6162L22.1503 62.2563C23.252 63.0901 24.5674 63.5968 25.9453 63.718C27.2174 63.8207 27.9844 63.4826 28.0359 62.8484C28.1632 61.2809 22.4128 61.6887 22.7103 58.0266C22.9146 55.5123 25.2031 54.0384 28.6613 54.3176C30.1319 54.3875 31.5566 54.8503 32.7862 55.6576L31.3869 58.008C30.471 57.3386 29.3848 56.9393 28.2522 56.8558C26.8814 56.7451 26.1062 57.186 26.0547 57.8202C25.9248 59.419 31.6791 58.9621 31.3871 62.5571C31.1843 65.0535 28.8465 66.5235 25.4242 66.2472C23.4166 66.0941 21.6411 65.4158 20.6465 64.6162Z" fill="white"/>
<path d="M37.6994 57.8481L37.159 59.7824L42.3507 60.2016L41.6536 62.6221L36.4574 62.2026L35.8629 64.3033L41.9953 64.7984L41.251 67.3006L31.8665 66.5428L35.1677 55.0994L44.3193 55.8384L43.5926 58.3464L37.6994 57.8481Z" fill="white"/>
<path d="M52.1875 64.6636L53.8923 68.321L50.4342 68.0418L48.9475 64.8066L47.2812 64.672L46.4116 67.717L43.1057 67.45L46.3846 56.0048L51.3792 56.4081C54.3671 56.6494 55.9747 58.1727 55.7853 60.5039C55.7284 61.4953 55.345 62.4404 54.6945 63.1925C54.044 63.9445 53.1628 64.4617 52.1875 64.6636ZM50.704 58.9473L48.966 58.807L48.0035 62.1636L49.9744 62.3227C51.4303 62.4403 52.338 61.8123 52.4421 60.5306C52.504 59.5467 51.8373 59.0388 50.704 58.9473Z" fill="white"/>
<path d="M70.5783 57.9583L62.3272 69.002L59.0706 68.7391L57.3369 56.8892L60.7279 57.163L61.782 64.8899L67.1739 57.6834L70.5783 57.9583Z" fill="white"/>
<path d="M71.2765 58.0146L74.5869 58.2819L71.2856 69.7253L67.9797 69.4583L71.2765 58.0146Z" fill="white"/>
<path d="M74.5549 65.0624C74.8836 61.0163 78.1109 58.3101 82.4515 58.6606C84.6061 58.8345 86.2982 59.7623 87.0168 61.2408L84.4616 62.945C84.2286 62.4902 83.8769 62.1065 83.4435 61.8341C83.0102 61.5618 82.5113 61.411 81.9992 61.3976C79.7281 61.2142 78.0811 62.8388 77.8947 65.1343C77.7673 66.7018 78.7527 67.8378 80.54 67.9821C81.0854 68.0287 81.6345 67.9534 82.147 67.7614C82.6595 67.5695 83.1225 67.2659 83.5023 66.8727L85.3 68.9418C83.8543 70.4209 82.087 70.8625 79.9995 70.694C76.4274 70.3741 74.3075 68.1082 74.5549 65.0624Z" fill="white"/>
<path d="M91.7938 62.2158L91.2489 64.1497L96.4406 64.5689L95.7569 66.9905L90.5473 66.5699L89.9573 68.671L96.0852 69.1657L95.3454 71.6683L85.9788 70.912L89.2532 59.4664L98.4048 60.2053L97.6825 62.7138L91.7938 62.2158Z" fill="white"/>
</g>
</g>
<defs>
<clipPath id="clip0_707_3066">
<rect width="127" height="116" fill="white" transform="matrix(-1 0 0 1 127 0)"/>
</clipPath>
<clipPath id="clip1_707_3066">
<rect width="78.1968" height="45.7021" fill="white" transform="matrix(0.996756 0.0804815 -0.0809693 0.996717 24.2334 20.4707)"/>
</clipPath>
</defs>
</svg>
