<svg width="32" height="32" viewBox="0 0 32 32" fill="none" xmlns="http://www.w3.org/2000/svg">
<g clip-path="url(#clip0_1_3175)">
<path d="M1.33333 4.66675H18.9267C19.6627 4.66675 20.26 5.26408 20.26 6.00008V9.63341H23.32H27.7267C28.2233 9.63341 28.6793 9.91008 28.9087 10.3507L31.8487 15.9907C31.8547 16.0027 31.8567 16.0161 31.862 16.0281C31.9007 16.1074 31.9313 16.1901 31.9533 16.2774C31.9573 16.2927 31.964 16.3074 31.9673 16.3234C31.988 16.4147 32 16.5094 32 16.6067V22.2067C32 22.9427 31.4027 23.5401 30.6667 23.5401H28.6067C28.6073 23.5674 28.6133 23.5927 28.6133 23.6201C28.6133 25.6674 26.9 27.3334 24.794 27.3334C22.6913 27.3334 20.98 25.6674 20.98 23.6201C20.98 23.5927 20.986 23.5667 20.9867 23.5401H18.9267H12.4667C12.4673 23.5674 12.4733 23.5927 12.4733 23.6201C12.4733 25.6674 10.7633 27.3334 8.66 27.3334C6.55333 27.3334 4.84 25.6674 4.84 23.6201C4.84 23.5927 4.846 23.5667 4.84667 23.5401H1.33333C0.597332 23.5401 0 22.9427 0 22.2067V6.00008C0 5.26408 0.597332 4.66675 1.33333 4.66675ZM26.918 12.3001H24.654V15.2734H28.4687L26.918 12.3001ZM24.7933 24.6667C25.4293 24.6667 25.946 24.1974 25.946 23.6201C25.946 23.4001 25.8767 23.2007 25.7287 23.0087C25.3367 22.4894 24.4067 22.4608 23.9493 22.9241C23.916 22.9581 23.88 22.9881 23.8507 23.0267C23.7147 23.2014 23.6453 23.4007 23.6453 23.6201C23.6467 24.1974 24.1607 24.6667 24.7933 24.6667ZM20.2593 20.8734H22.2233C22.2373 20.8607 22.254 20.8527 22.268 20.8401C22.42 20.7087 22.5807 20.5887 22.7513 20.4827C22.784 20.4627 22.818 20.4454 22.8513 20.4267C23.01 20.3347 23.1747 20.2541 23.346 20.1854C23.3767 20.1734 23.406 20.1587 23.4373 20.1467C23.628 20.0761 23.8247 20.0221 24.0253 19.9814C24.07 19.9721 24.1153 19.9654 24.1607 19.9581C24.3687 19.9234 24.5793 19.9001 24.7933 19.9001C25.0087 19.9001 25.22 19.9241 25.4293 19.9587C25.4733 19.9661 25.5173 19.9727 25.5613 19.9814C25.7653 20.0221 25.9653 20.0767 26.1587 20.1487C26.1827 20.1574 26.2053 20.1687 26.2293 20.1781C26.4167 20.2521 26.5967 20.3394 26.7687 20.4407C26.7873 20.4521 26.8073 20.4614 26.826 20.4727C27.008 20.5841 27.1787 20.7107 27.3387 20.8507C27.348 20.8594 27.36 20.8647 27.3693 20.8734H29.3333V17.9401H23.32C22.584 17.9401 21.9867 17.3427 21.9867 16.6067V12.3001H20.2593V20.8734ZM8.66 24.6667C9.292 24.6667 9.80667 24.1974 9.80667 23.6201C9.80667 23.4001 9.73733 23.2007 9.58933 23.0087C9.19467 22.4861 8.27133 22.4654 7.81533 22.9187C7.78 22.9541 7.742 22.9861 7.71133 23.0267C7.57533 23.2014 7.506 23.4007 7.506 23.6201C7.50666 24.1974 8.024 24.6667 8.66 24.6667ZM2.66667 10.3021H11.5553C12.2913 10.3021 12.8887 10.8994 12.8887 11.6354C12.8887 12.3714 12.2913 12.9687 11.5553 12.9687H2.66667V14.5334H8.658C9.394 14.5334 9.99133 15.1307 9.99133 15.8667C9.99133 16.6027 9.394 17.2001 8.658 17.2001H2.66667V20.8734H6.08467C6.098 20.8614 6.11467 20.8534 6.128 20.8414C6.28067 20.7094 6.44267 20.5887 6.614 20.4827C6.646 20.4627 6.67933 20.4461 6.712 20.4274C6.87133 20.3354 7.03733 20.2541 7.20933 20.1854C7.24 20.1734 7.26867 20.1587 7.3 20.1474C7.49067 20.0767 7.68867 20.0227 7.89 19.9821C7.93533 19.9727 7.98 19.9661 8.026 19.9587C8.23467 19.9241 8.446 19.9007 8.66067 19.9007C8.87533 19.9007 9.086 19.9247 9.29467 19.9594C9.33867 19.9667 9.382 19.9734 9.426 19.9821C9.63 20.0227 9.82933 20.0774 10.022 20.1494C10.046 20.1581 10.0687 20.1694 10.092 20.1787C10.2787 20.2527 10.4587 20.3407 10.6307 20.4414C10.6493 20.4521 10.6687 20.4621 10.6873 20.4734C10.87 20.5847 11.0407 20.7121 11.2007 20.8527C11.21 20.8607 11.2207 20.8661 11.23 20.8741H17.5933V10.9667V7.33341H2.66667V10.3021Z" fill="#F8EA2D"/>
</g>
<defs>
<clipPath id="clip0_1_3175">
<rect width="32" height="32" fill="white" transform="matrix(-1 0 0 1 32 0)"/>
</clipPath>
</defs>
</svg>
