<svg width="32" height="32" viewBox="0 0 32 32" fill="none" xmlns="http://www.w3.org/2000/svg">
<g clip-path="url(#clip0_1_3189)">
<path d="M27.7677 17.4691C27.8276 16.9809 27.8586 16.4901 27.8586 15.9999C27.8586 15.5097 27.8276 15.0189 27.767 14.5314L31.9993 12.0884L27.3875 4.10012L23.146 6.54833C22.3607 5.95143 21.5128 5.45994 20.6115 5.07914V0.187988H11.3879V5.07914C10.4866 5.4606 9.63867 5.95143 8.85335 6.54833L4.6118 4.10012L0 12.0878L4.23166 14.5307C4.17105 15.0189 4.14074 15.5097 4.14074 15.9999C4.14074 16.4901 4.17105 16.9809 4.23232 17.4684L0.000658829 19.9114L4.61246 27.899L8.85401 25.4508C9.63933 26.0477 10.4872 26.5392 11.3885 26.92V31.8118H20.6121V26.9207C21.5134 26.5392 22.3607 26.0484 23.1466 25.4515L27.3882 27.8997L32 19.912L27.7677 17.4691ZM26.4223 24.3005L22.8469 22.2364L22.136 22.8715C21.1767 23.728 20.0818 24.3631 18.882 24.7577L17.9762 25.0555V29.1765H14.0232V25.0555L13.1173 24.7571C11.9169 24.3618 10.8219 23.7273 9.86333 22.8708L9.15246 22.2357L5.57633 24.2998L3.59984 20.8765L7.16477 18.8184L6.97041 17.8848C6.84128 17.2662 6.77606 16.6317 6.77606 15.9999C6.77606 15.3681 6.84128 14.7336 6.97041 14.1143L7.16477 13.1808L3.59984 11.1226L5.57633 7.6993L9.15246 9.76342L9.86333 9.1283C10.8219 8.27183 11.9169 7.63737 13.1173 7.24207L14.0232 6.94428V2.82331H17.9762V6.94428L18.882 7.24273C20.0818 7.63737 21.1767 8.27248 22.136 9.12896L22.8469 9.76407L26.4223 7.69996L28.3988 11.1232L24.8346 13.1814L25.0289 14.115C25.1574 14.7336 25.2233 15.3681 25.2233 15.9999C25.2233 16.6317 25.1574 17.2662 25.0289 17.8855L24.8346 18.819L28.3988 20.8772L26.4223 24.3005Z" fill="#F8EA2D"/>
<path d="M15.9998 10.0703C12.7307 10.0703 10.0703 12.7307 10.0703 15.9998C10.0703 19.2689 12.7307 21.9292 15.9998 21.9292C19.2695 21.9292 21.9292 19.2689 21.9292 15.9998C21.9292 12.7307 19.2695 10.0703 15.9998 10.0703ZM15.9998 19.2939C14.1834 19.2939 12.7056 17.8162 12.7056 15.9998C12.7056 14.1834 14.1834 12.7056 15.9998 12.7056C17.8162 12.7056 19.2939 14.1834 19.2939 15.9998C19.2939 17.8162 17.8162 19.2939 15.9998 19.2939Z" fill="#F8EA2D"/>
</g>
<defs>
<clipPath id="clip0_1_3189">
<rect width="32" height="32" fill="white"/>
</clipPath>
</defs>
</svg>
