<svg width="32" height="32" viewBox="0 0 32 32" fill="none" xmlns="http://www.w3.org/2000/svg">
<g clip-path="url(#clip0_1_3168)">
<path d="M16.0002 5.99072C12.6933 5.99072 10.0034 8.68126 10.0034 11.9875C10.0034 15.2937 12.6933 17.9842 16.0002 17.9842C19.307 17.9842 21.9969 15.2943 21.9969 11.9875C21.9969 8.68126 19.307 5.99072 16.0002 5.99072ZM16.0002 15.319C14.1632 15.319 12.6686 13.8245 12.6686 11.9875C12.6686 10.1505 14.1632 8.65595 16.0002 8.65595C17.8372 8.65595 19.3317 10.1505 19.3317 11.9875C19.3317 13.8245 17.8372 15.319 16.0002 15.319Z" fill="#F8EA2D"/>
<path d="M16.0001 0C9.38701 0 4.00659 5.38042 4.00659 11.9935C4.00659 18.2055 13.8752 29.5873 15 30.8646L16.0001 32L17.0002 30.8646C18.1249 29.5873 27.9936 18.2055 27.9936 11.9935C27.9936 5.38042 22.6132 0 16.0001 0ZM16.0001 27.9349C12.6952 23.9837 6.67181 15.9607 6.67181 11.9935C6.67181 6.84962 10.8562 2.66522 16.0001 2.66522C21.144 2.66522 25.3284 6.84962 25.3284 11.9935C25.3284 15.9607 19.305 23.9837 16.0001 27.9349Z" fill="#F8EA2D"/>
</g>
<defs>
<clipPath id="clip0_1_3168">
<rect width="32" height="32" fill="white"/>
</clipPath>
</defs>
</svg>
