<svg width="32" height="32" viewBox="0 0 32 32" fill="none" xmlns="http://www.w3.org/2000/svg">
<g clip-path="url(#clip0_1_3165)">
<path d="M31.1416 6.81017C31.1416 6.4042 30.8963 6.03841 30.5209 5.88411L16.3804 0.0750859C16.1366 -0.0250286 15.8633 -0.0250286 15.6195 0.0750859L1.47911 5.88411C1.10362 6.03835 0.858398 6.4042 0.858398 6.81017V25.1898C0.858398 25.5958 1.10355 25.9616 1.47911 26.1159L15.6195 31.9249C15.8607 32.024 16.1318 32.0261 16.3792 31.9249C16.3912 31.9208 15.8559 32.1404 30.5209 26.1159C30.8964 25.9617 31.1416 25.5958 31.1416 25.1898V6.81017ZM16 11.6211L10.7898 9.48066L22.0496 4.56873L27.6083 6.85228L16 11.6211ZM2.86069 8.38798L7.3559 10.2347V15.4446C7.3559 15.9975 7.80416 16.4458 8.35704 16.4458C8.90993 16.4458 9.35819 15.9975 9.35819 15.4446V11.0572L14.9988 13.3744V29.5052L2.86069 24.5188V8.38798ZM16 2.08345L19.4706 3.5092L8.21075 8.42114L4.39169 6.85222L16 2.08345ZM17.0011 13.3744L29.1393 8.38798V24.5188L17.0011 29.5052V13.3744Z" fill="#F8EA2D"/>
</g>
<defs>
<clipPath id="clip0_1_3165">
<rect width="32" height="32" fill="white"/>
</clipPath>
</defs>
</svg>
