<svg width="32" height="32" viewBox="0 0 32 32" fill="none" xmlns="http://www.w3.org/2000/svg">
<g clip-path="url(#clip0_1_3180)">
<path d="M16 0C7.17741 0 0 7.17741 0 16C0 24.8226 7.17741 32 16 32C24.8226 32 32 24.8226 32 16C32 7.17741 24.8226 0 16 0ZM16 29.3333C8.64811 29.3333 2.66667 23.3519 2.66667 16C2.66667 8.64811 8.64811 2.66667 16 2.66667C23.3519 2.66667 29.3333 8.64811 29.3333 16C29.3333 23.3519 23.3519 29.3333 16 29.3333Z" fill="#F8EA2D"/>
<path d="M14.7805 15.3333L21.9996 8.1145L23.8853 9.99992L16.6663 17.219L14.7805 15.3333Z" fill="#F8EA2D"/>
<path d="M21.6565 21.6565C18.5374 24.776 13.4618 24.776 10.3427 21.6565L9.39998 20.7131L7.51392 22.5992L8.45728 23.5419C10.5367 25.6213 13.2678 26.6614 15.9993 26.6614C18.7307 26.6614 21.4618 25.6213 23.5413 23.5419L24.4846 22.5992L22.5986 20.7131L21.6565 21.6565Z" fill="#F8EA2D"/>
<path d="M24 14.6667H26.6667V17.3334H24V14.6667Z" fill="#F8EA2D"/>
<path d="M5.33325 14.6667H7.99992V17.3334H5.33325V14.6667Z" fill="#F8EA2D"/>
<path d="M14.6667 5.33325H17.3334V7.99992H14.6667V5.33325Z" fill="#F8EA2D"/>
<path d="M8 8H10.6667V10.6667H8V8Z" fill="#F8EA2D"/>
</g>
<defs>
<clipPath id="clip0_1_3180">
<rect width="32" height="32" fill="white"/>
</clipPath>
</defs>
</svg>
