<svg width="17" height="18" viewBox="0 0 17 18" fill="none" xmlns="http://www.w3.org/2000/svg">
<path d="M15.7556 8.12393C15.32 8.22189 14.6427 8.43537 13.7235 8.76437L10.9822 10.1036L12.0739 12.6394C12.1729 12.8781 12.3575 13.2108 12.6276 13.6373C12.9165 14.0286 13.093 14.3338 13.1573 14.553C13.334 15.1557 13.1365 15.7193 12.5649 16.2439C12.1108 16.6745 11.5497 16.9878 10.8817 17.1836C9.97315 17.45 9.2716 17.4326 8.77702 17.1314C8.30114 16.7949 7.85583 16.1669 7.44111 15.2472C7.01835 14.3002 6.58756 13.3258 6.14874 12.324L4.68217 13.5572C4.26545 13.9174 3.80856 14.1406 3.31152 14.2268C2.70759 14.3444 2.11285 14.1469 1.52729 13.6344C0.941742 13.1218 0.540534 12.4957 0.323671 11.7561C0.187128 11.2904 0.17083 10.7894 0.274777 10.2532C0.370692 9.6896 0.632419 9.34512 1.05996 9.21976C1.16684 9.18842 1.39668 9.18054 1.74946 9.1961C2.10224 9.21166 2.3815 9.17441 2.58724 9.08433L4.49494 8.16801L3.10619 4.91603C3.03128 4.7595 2.8962 4.54624 2.70097 4.27624C2.50573 4.00624 2.38402 3.78906 2.33583 3.6247C2.19125 3.1316 2.56913 2.58944 3.46946 1.99822C4.12668 1.56754 4.77594 1.25818 5.41725 1.07015C6.99379 0.607906 7.8905 0.746606 8.10736 1.48625C8.14752 1.62322 8.13965 1.89327 8.08373 2.29641C8.04651 2.66431 8.07339 2.95392 8.16437 3.16524L9.27231 6.05331L10.9395 5.20749C11.1639 5.08219 11.5193 4.85901 12.0055 4.53796C12.4116 4.2404 12.7482 4.05245 13.0154 3.97411C13.6567 3.78608 14.3236 3.93267 15.016 4.41388C15.7352 4.88725 16.1952 5.46636 16.396 6.15122C16.653 7.02784 16.4395 7.68541 15.7556 8.12393Z" fill="white"/>
</svg>
