<svg width="181" height="90" viewBox="0 0 181 90" fill="none" xmlns="http://www.w3.org/2000/svg">
<path fill-rule="evenodd" clip-rule="evenodd" d="M77.8182 31.2066V36.1406C77.8182 36.2988 77.9773 36.4618 78.1364 36.4618C78.4594 36.4618 78.9368 36.6201 79.4189 36.6201C80.6966 36.6201 81.6561 36.2988 82.1383 35.8241C82.7747 35.3446 82.9338 34.5487 82.9338 33.5945C82.9338 31.8395 81.6561 31.0436 78.9368 31.0436H78.1364C77.9773 30.8853 77.8182 31.0436 77.8182 31.2066ZM77.8182 23.2518V27.2316C77.8182 27.3946 77.9773 27.3946 78.1364 27.3946H78.7776C81.3379 27.3946 82.6156 26.5987 82.6156 25.002C82.6156 23.4101 81.497 22.7723 79.4189 22.7723C78.9368 22.7723 78.4594 22.7723 78.1364 22.9354C77.9773 22.9354 77.8182 23.0936 77.8182 23.2518ZM74.9397 39.8039C74.4624 39.8039 74.1393 39.6457 73.8211 39.1662C73.5029 38.8497 73.3438 38.3702 73.3438 37.8907V21.1804C73.3438 20.7057 73.5029 20.3845 73.8211 19.9098C74.1393 19.5885 74.4624 19.4303 74.9397 19.272C76.3813 19.272 77.659 19.272 79.0959 19.272C84.2164 19.272 86.7718 21.0222 86.7718 24.5273C86.7718 25.6397 86.4536 26.7569 85.6532 27.5529C85.0167 28.3488 83.8933 28.8283 82.7747 29.1448C84.2164 29.303 85.335 29.9407 86.1353 30.7367C86.9357 31.6909 87.4131 32.8081 87.4131 33.9205C87.4131 35.9919 86.7718 37.5838 85.4941 38.5428C84.2164 39.497 82.1383 40.1347 79.4189 40.1347C77.8182 39.9621 76.3813 39.9621 74.9397 39.8039ZM102.591 29.6099C102.591 25.3136 101.155 23.084 98.1169 23.084C95.0793 23.084 93.6377 25.3136 93.6377 29.6099C93.6377 33.9109 95.0793 36.1406 98.1169 36.1406C101.164 36.1406 102.591 33.9109 102.591 29.6099ZM104.833 37.2578C103.233 39.1662 100.995 39.9621 98.1169 39.9621C95.2385 39.9621 93.1604 39.0079 91.4005 37.2578C89.7997 35.3446 88.9994 32.7985 88.9994 29.6099C88.9994 26.4261 89.7997 23.7217 91.4005 21.9668C93.0013 20.0584 95.2385 19.2625 98.1169 19.2625C100.995 19.2625 103.073 20.2166 104.833 21.9668C106.429 23.88 107.23 26.4261 107.23 29.6099C107.23 32.7985 106.429 35.5029 104.833 37.2578ZM115.224 35.8241C115.224 35.9823 115.224 35.9823 115.388 35.9823H120.663C120.822 35.9823 120.981 35.9823 120.981 35.8241V23.5731C120.981 23.4101 120.822 23.4101 120.663 23.4101H117.625C117.466 23.4101 117.466 23.5731 117.466 23.7313C117.466 27.2316 117.307 29.7825 117.143 31.2162C116.825 32.4773 116.183 34.0692 115.224 35.8241ZM110.59 44.1049C110.108 44.1049 109.79 44.1049 109.467 43.7837C109.149 43.4672 108.99 43.1508 108.99 42.6713V37.2578C108.99 36.9365 109.149 36.6201 109.308 36.2988C109.467 35.9823 109.79 35.9823 110.108 35.9823C110.267 35.9823 110.426 35.9823 110.426 35.8241C111.55 34.2322 112.186 32.4773 112.509 30.8853C112.828 29.2934 112.987 26.7473 112.987 23.2422V21.0126C112.987 20.5331 113.146 20.2166 113.469 19.8954C113.787 19.5789 114.105 19.4207 114.587 19.4207H123.859C124.341 19.4207 124.66 19.5789 124.978 19.8954C125.301 20.2166 125.46 20.5331 125.46 21.0126V35.6659C125.46 35.8241 125.46 35.8241 125.619 35.8241H126.26C126.738 35.8241 127.061 35.9823 127.379 36.2988C127.697 36.6201 127.856 36.9365 127.856 37.416V42.513C127.856 42.9877 127.697 43.309 127.379 43.6254C127.061 43.9467 126.738 44.1049 126.26 44.1049H125.142C124.66 44.1049 124.341 43.9467 124.018 43.6254C123.7 43.309 123.541 42.9877 123.541 42.513V39.9621C123.541 39.8039 123.541 39.6457 123.382 39.6457H113.469C113.305 39.6457 113.305 39.8039 113.305 39.9621V42.513C113.305 42.9877 113.146 43.309 112.828 43.6254C112.509 43.9467 112.186 44.1049 111.709 44.1049H110.59ZM135.682 31.5231C135.682 31.6813 135.682 31.6813 135.682 31.5231C135.841 31.6813 135.841 31.6813 135.841 31.6813H139.52V31.5231L137.601 23.5587L135.682 31.5231ZM130.576 39.8039C130.257 39.8039 129.934 39.6457 129.616 39.3244C129.457 39.0079 129.298 38.6915 129.457 38.3702L134.896 21.0222C135.055 20.5427 135.214 20.2262 135.691 19.9098C136.014 19.5885 136.492 19.4303 136.974 19.4303H138.734C139.211 19.4303 139.529 19.5885 140.011 19.9098C140.33 20.2262 140.648 20.5427 140.812 21.0222L146.087 38.3702C146.246 38.6915 146.087 39.0079 145.928 39.3244C145.768 39.6457 145.445 39.8039 144.968 39.8039H143.208C142.731 39.8039 142.408 39.6457 142.09 39.3244C141.771 39.0079 141.448 38.6915 141.448 38.212L140.812 35.5029C140.812 35.3446 140.648 35.3446 140.489 35.3446H135.214C135.055 35.3446 135.055 35.3446 134.896 35.5029L134.095 38.212C133.936 38.6915 133.772 39.0079 133.454 39.3244C133.136 39.6457 132.654 39.8039 132.336 39.8039H130.576ZM77.8182 53.8195V59.8706C77.8182 60.0289 77.9773 60.1871 78.1364 60.1871C78.7776 60.1871 79.2598 60.3501 79.578 60.3501C80.8557 60.3501 81.8152 60.0289 82.6156 59.3912C83.2569 58.7534 83.7342 57.9575 83.7342 56.845C83.7342 54.6154 82.4565 53.4982 79.7371 53.4982C79.2598 53.4982 78.7776 53.4982 78.3003 53.6612C77.9773 53.6612 77.8182 53.6612 77.8182 53.8195ZM74.9397 70.3715C74.4624 70.3715 74.1393 70.2133 73.8211 69.892C73.5029 69.5756 73.3438 69.2543 73.3438 68.7796V51.9063C73.3438 51.4316 73.5029 51.1103 73.8211 50.6356C74.1393 50.3144 74.4624 50.1561 74.9397 49.9979C76.3813 49.8349 77.9773 49.8349 79.2598 49.8349C85.0167 49.8349 87.7313 52.0645 87.7313 56.5238C87.7313 58.9165 87.0948 60.6666 85.8123 61.9421C84.5346 63.2127 82.6156 63.8504 80.0554 63.8504C79.4189 63.8504 78.7776 63.8504 78.1364 63.6922C77.9773 63.6922 77.8182 63.6922 77.8182 63.8504V68.7892C77.8182 69.2687 77.659 69.5852 77.3408 69.9016C77.0178 70.2229 76.6996 70.3811 76.2222 70.3811H74.9397V70.3715ZM102.914 60.1775C102.914 55.8765 101.473 53.6468 98.4352 53.6468C95.3976 53.6468 93.9607 55.8765 93.9607 60.1775C93.9607 64.4786 95.3976 66.7082 98.4352 66.7082C101.473 66.7082 102.914 64.6368 102.914 60.1775ZM105.152 67.9837C103.551 69.892 101.314 70.688 98.4352 70.688C95.5567 70.688 93.4786 69.7338 91.7187 67.9837C90.1228 66.0705 89.3224 63.5244 89.3224 60.3358C89.3224 57.1519 90.1228 54.4428 91.7187 52.6926C93.3195 50.7843 95.5567 49.9835 98.4352 49.9835C101.314 49.9835 103.392 50.9425 105.152 52.6926C106.752 54.6058 107.548 57.1519 107.548 60.3358C107.548 63.5244 106.752 66.0705 105.152 67.9837ZM118.584 70.688C115.706 70.688 113.305 69.7338 111.709 67.9837C110.108 66.2287 109.149 63.6826 109.149 60.1775C109.149 56.8355 109.949 54.2846 111.55 52.5344C113.146 50.7843 115.388 49.8253 118.261 49.8253C119.703 49.8253 120.822 49.9835 121.94 50.1465C122.422 50.1465 122.741 50.463 122.9 50.7843C123.223 51.1007 123.223 51.5802 123.223 52.0549V53.0139C123.223 53.3304 123.059 53.6468 122.741 53.9681C122.422 54.1263 122.099 54.2846 121.781 54.1263C120.822 53.8099 119.703 53.6468 118.744 53.6468C117.143 53.6468 115.865 54.2846 115.065 55.4018C114.105 56.5142 113.787 58.1061 113.787 60.3358C113.787 62.4072 114.264 64.1573 115.224 65.2745C116.183 66.3869 117.466 67.0247 119.062 67.0247C120.18 67.0247 121.14 66.8664 122.099 66.55C122.422 66.3869 122.741 66.55 123.059 66.7082C123.382 66.8664 123.541 67.1877 123.541 67.6624V68.4583C123.541 68.9378 123.382 69.4173 123.059 69.7338C122.741 70.0503 122.422 70.3715 121.94 70.3715C121.14 70.5298 119.862 70.688 118.584 70.688ZM135.682 70.688C132.803 70.688 130.407 69.7338 128.806 67.9837C127.205 66.2287 126.246 63.6826 126.246 60.1775C126.246 56.8355 127.046 54.2846 128.647 52.5344C130.248 50.7843 132.485 49.8253 135.363 49.8253C136.8 49.8253 137.919 49.9835 139.042 50.1465C139.52 50.1465 139.838 50.463 140.002 50.7843C140.32 51.1007 140.32 51.5802 140.32 52.0549V53.0139C140.32 53.3304 140.161 53.6468 139.838 53.9681C139.52 54.1263 139.201 54.2846 138.878 54.1263C137.919 53.8099 136.8 53.6468 135.841 53.6468C134.245 53.6468 132.962 54.2846 132.167 55.4018C131.207 56.5142 130.884 58.1061 130.884 60.3358C130.884 62.4072 131.366 64.1573 132.326 65.2745C133.285 66.3869 134.563 67.0247 136.164 67.0247C137.282 67.0247 138.242 66.8664 139.201 66.55C139.52 66.3869 139.838 66.55 140.161 66.7082C140.479 66.8664 140.638 67.1877 140.638 67.6624V68.4583C140.638 68.9378 140.479 69.4173 140.161 69.7338C139.838 70.0503 139.52 70.3715 139.042 70.3715C138.401 70.5298 137.123 70.688 135.682 70.688ZM146.236 70.3715C145.759 70.3715 145.436 70.2133 145.118 69.892C144.799 69.5756 144.635 69.2543 144.635 68.7796V51.748C144.635 51.2686 144.799 50.9521 145.118 50.6356C145.436 50.3144 145.759 50.1561 146.236 50.1561H147.514C147.996 50.1561 148.314 50.3144 148.632 50.6356C148.955 50.9521 149.115 51.2686 149.115 51.748V62.5798L154.712 51.5898C155.19 50.6356 155.831 50.1561 156.95 50.1561H158.227C158.709 50.1561 159.028 50.3144 159.346 50.6356C159.669 50.9521 159.828 51.2686 159.828 51.748V68.9378C159.828 69.4173 159.669 69.7338 159.346 70.0503C159.028 70.3715 158.709 70.5298 158.227 70.5298H156.95C156.472 70.5298 156.149 70.3715 155.831 70.0503C155.513 69.7338 155.349 69.4173 155.349 68.9378V58.1061L149.756 69.0961C149.274 70.0503 148.473 70.5298 147.514 70.5298H146.236V70.3715ZM165.416 70.3715C164.934 70.3715 164.616 70.2133 164.293 69.892C163.975 69.5756 163.816 69.2543 163.816 68.7796V51.748C163.816 51.2686 163.975 50.9521 164.293 50.6356C164.616 50.3144 164.934 50.1561 165.416 50.1561H166.694C167.171 50.1561 167.494 50.3144 167.813 50.6356C168.131 50.9521 168.29 51.2686 168.29 51.748V62.5798L173.888 51.5898C174.37 50.6356 175.006 50.1561 176.13 50.1561H177.407C177.885 50.1561 178.208 50.3144 178.526 50.6356C178.844 50.9521 179.003 51.2686 179.003 51.748V68.9378C179.003 69.4173 178.844 69.7338 178.526 70.0503C178.208 70.3715 177.885 70.5298 177.407 70.5298H176.13C175.648 70.5298 175.329 70.3715 175.006 70.0503C174.688 69.7338 174.529 69.4173 174.529 68.9378V58.1061L168.931 69.0961C168.454 70.0503 167.653 70.5298 166.694 70.5298H165.416V70.3715Z" fill="#9AA8B2"/>
<path fill-rule="evenodd" clip-rule="evenodd" d="M53.2042 57.3245L52.2447 58.1205C50.3258 57.4827 48.4068 56.6868 46.1696 55.8908C39.6122 53.4982 33.378 51.5898 25.7117 52.0645C20.596 52.3857 12.9201 56.5238 8.13228 58.7534C6.53634 59.5541 5.09469 60.3501 3.65787 61.1461C3.49394 59.8706 3.49394 58.5952 3.33482 57.3245V55.8908C9.73304 55.2531 15.3309 52.2275 20.596 49.5184C26.0299 46.651 30.35 45.6968 33.8649 45.5386C39.1446 45.2173 44.7424 47.61 50.0075 49.3601C52.886 50.3143 55.2823 51.2685 57.5243 52.0645C56.5649 53.4982 55.1232 55.2531 53.2042 57.3245ZM42.6498 65.4327C26.8303 76.5809 8.44086 83.898 4.28467 64.6368C9.72339 62.2489 15.4803 60.657 19.6269 60.3357C24.4243 60.0193 29.217 60.1775 35.7646 62.7284C38.3442 63.6826 40.5717 64.6368 42.6498 65.4327ZM3.17571 47.7682C3.0166 44.7426 3.0166 41.717 3.0166 38.6914C4.1352 39.1661 5.25381 39.4874 6.53634 39.9621C10.5334 41.554 14.2074 42.513 19.6462 42.1917C26.5217 41.717 35.3066 33.9109 38.6624 32.1608C41.8639 30.5688 45.3788 29.4516 49.0577 29.1352C50.4945 30.2476 51.777 31.3648 53.0548 32.4772C56.5745 35.3446 58.4935 38.8497 59.2939 41.717C54.4964 39.4874 47.4569 37.0947 42.0327 37.416C36.2757 37.7325 32.1195 39.8039 27.6403 42.1917C23.6432 44.4214 16.9268 47.9265 11.0204 48.2429C8.29139 48.5642 5.57685 48.2429 3.17571 47.7682ZM3.65787 28.6557C3.81698 27.8597 3.81698 27.0638 3.97609 26.426C7.97317 3.82277 28.7493 13.6859 45.2197 26.2678C38.1851 30.4058 31.4686 33.9109 27.163 34.2322C20.9239 34.5486 15.8082 33.5944 9.90179 31.0435C7.81405 30.2476 5.57685 29.2934 3.65787 28.6557Z" fill="#9AA8B2"/>
</svg>
